<svg width="137" height="42" viewBox="0 0 137 42" fill="none" xmlns="http://www.w3.org/2000/svg">
<g clip-path="url(#clip0_524_417)">
<path d="M22.5234 4.20636L18.5766 2.02457C17.9955 1.90963 16.8356 1.79468 15.9059 1.79468C7.19865 1.79468 0 8.79762 0 17.527C0 26.2564 7.19865 33.2593 15.9059 33.2593C16.8356 33.2593 17.7631 33.1444 18.5766 33.0294L22.5234 30.8476V33.2593H33.3203V1.79468H22.5234V4.20636ZM22.5234 22.693H16.2545C13.3514 22.693 10.6829 20.7411 10.6829 17.5248C10.6829 14.3085 13.4698 12.3566 16.2545 12.3566H22.5234V22.6908V22.693Z" fill="#151414"/>
<path d="M55.8452 5.58352V13.9658C55.8452 16.7224 54.1042 19.249 50.9686 19.249C47.6006 19.249 45.8596 16.6074 45.8596 13.9658V1.79468H35.5254V14.083C35.5254 22.4653 40.402 29.3555 47.3682 29.3555C48.993 29.3555 50.5038 29.2406 51.8961 28.7808L55.7267 25.7944L55.843 25.675V28.6658C55.843 30.7327 54.797 31.7672 52.7074 31.7672H41.7943V41.9865H54.3344C61.8817 41.9865 66.1772 37.393 66.1772 29.2406V1.79468H55.843V5.58352H55.8452Z" fill="#151414"/>
<path d="M125.854 1.79468V4.20636L121.907 2.02457C121.326 1.90963 120.166 1.79468 119.236 1.79468C110.529 1.79468 103.33 8.79984 103.33 17.527C103.33 26.2542 110.529 33.2593 119.236 33.2593C120.166 33.2593 121.093 33.1444 121.907 33.0294L125.854 30.8476V33.2593H136.65V1.79468H125.854ZM125.854 22.693H119.585C116.681 22.693 114.013 20.7411 114.013 17.5248C114.013 14.3085 116.8 12.3566 119.585 12.3566H125.854V22.6908V22.693Z" fill="#151414"/>
<path d="M85.9174 1.79468C84.9876 1.79468 83.8277 1.90963 83.2466 2.02457L79.2998 4.20636V1.79468H68.3867V41.9865H79.2998V30.8476L83.2466 33.0294C84.0601 33.1444 84.9876 33.2593 85.9174 33.2593C94.6246 33.2593 101.823 26.2542 101.823 17.527C101.823 8.79984 94.6246 1.79468 85.9174 1.79468ZM85.5687 22.693H79.2998V12.3588H85.5687C88.3556 12.3588 91.1403 14.1957 91.1403 17.527C91.1403 20.8583 88.4696 22.6952 85.5687 22.6952" fill="#151414"/>
</g>
<defs>
<clipPath id="clip0_524_417">
<rect width="137" height="42" fill="white"/>
</clipPath>
</defs>
</svg>
