<svg width="250" height="64" viewBox="0 0 250 64" fill="none" xmlns="http://www.w3.org/2000/svg">
<g clip-path="url(#clip0_524_318)">
<path d="M160.088 33.2639H183.673V43.2042H180.197V36.2024H163.572V43.2042H160.088V33.2639ZM193.643 43.4864C192.183 43.5 190.73 43.247 189.358 42.7333C188.186 42.3227 187.12 41.6513 186.24 40.7678C185.544 40.1061 185.132 39.1934 185.099 38.2302C185.13 37.2552 185.54 36.3308 186.24 35.6594C187.12 34.7721 188.186 34.0968 189.358 33.6823C190.73 33.1724 192.181 32.9155 193.643 32.9292C194.548 32.9194 195.45 33.0498 196.318 33.3164C197.086 33.5519 197.81 33.9119 198.465 34.379L198.663 33.2658H201.959V43.2062H198.657L198.479 42.0522C197.823 42.5231 197.092 42.8792 196.322 43.1147C195.448 43.3813 194.539 43.5117 193.627 43.502L193.643 43.4884V43.4864ZM188.811 38.2088C188.811 39.1195 189.271 39.8356 190.188 40.3494C191.256 40.9001 192.444 41.1706 193.643 41.1259C194.84 41.1667 196.03 40.9001 197.096 40.3494C198.02 39.8356 198.477 39.1195 198.477 38.2088C198.473 37.6308 198.229 37.082 197.808 36.6889C197.31 36.2121 196.705 35.856 196.043 35.6575C194.479 35.169 192.798 35.169 191.229 35.6575C190.565 35.856 189.962 36.2121 189.465 36.6889C189.045 37.082 188.799 37.6308 188.796 38.2088H188.811ZM212.603 32.9681H216.853C218.225 32.9856 219.581 33.2405 220.863 33.7212C222.602 34.3945 224.873 36.1713 224.873 38.2302C224.873 40.2891 222.635 42.0969 220.863 42.7761C219.561 43.2704 218.188 43.5292 216.797 43.5428H212.596C210.623 43.5428 209.006 43.1069 207.744 42.2351V45.5434H204.249V33.2658H207.545L207.723 34.2972C208.973 33.4137 210.597 32.972 212.596 32.97H212.601L212.603 32.9681ZM207.768 38.2477C207.768 38.8354 208.004 39.3978 208.421 39.8065C208.915 40.2852 209.52 40.6296 210.176 40.8145C210.965 41.05 211.781 41.1648 212.603 41.1512H216.789C217.551 41.1512 218.306 41.0344 219.029 40.8145C219.689 40.6296 220.294 40.2832 220.788 39.8065C221.207 39.3997 221.441 38.8354 221.438 38.2477C221.441 37.6619 221.207 37.1054 220.788 36.7006C220.29 36.2277 219.689 35.8813 219.029 35.6925C218.314 35.4668 217.569 35.3461 216.82 35.3364H212.598C211.776 35.3228 210.959 35.4376 210.17 35.6731C209.512 35.8579 208.909 36.2043 208.412 36.6811C207.994 37.0878 207.758 37.6522 207.762 38.2379L207.768 38.2477ZM227.26 33.2639H230.736V36.2627L246.011 32.7832V35.603L233.746 38.2924L245.998 40.7289V43.5389L230.734 40.2716V43.2023H227.25V33.2619H227.256L227.26 33.2639Z" fill="#FDEB01"/>
<path d="M169.286 25.4715C166.324 25.1445 162.902 24.7145 160.898 22.6439C160.285 22.0698 159.922 21.268 159.895 20.4215C159.912 19.5672 160.272 18.7576 160.898 18.1797C162.852 16.2259 166.311 15.6615 169.286 15.3365V13.8867H172.704V15.3346C175.739 15.6712 179.014 15.9203 181.134 18.1894C182.354 19.2714 182.474 21.1435 181.401 22.3753C181.315 22.4687 181.226 22.5602 181.134 22.6439C179.126 24.7981 175.895 25.055 172.704 25.4715V29.0288H169.286V25.4715ZM163.572 20.3651C163.572 21.0754 163.949 21.6495 164.701 22.0834C165.454 22.5174 168.154 22.8035 169.295 22.9475V17.8605C168.154 18.0162 165.454 18.3081 164.701 18.7343C163.949 19.1605 163.572 19.7034 163.572 20.3651ZM172.713 22.9475C173.849 22.7918 176.613 22.5038 177.36 22.0834C178.106 21.6631 178.48 21.1026 178.48 20.4021C178.48 19.7015 178.106 19.1741 177.36 18.7421C176.613 18.3081 173.849 18.0162 172.713 17.8605V22.9475ZM183.741 15.5506H187.217V17.592C187.19 18.6175 187.739 19.5691 188.641 20.0459C189.709 20.6375 190.916 20.9294 192.132 20.8905H198.966C200.077 20.9041 201.17 20.6278 202.143 20.0965C203.075 19.612 203.661 18.6467 203.665 17.592V15.5506H207.141V22.8891C207.174 24.1229 206.739 25.3255 205.926 26.2499C205.073 27.1976 203.994 27.9099 202.791 28.3166C201.572 28.7564 200.288 28.9957 198.991 29.0191H192.14C190.805 29.0191 189.48 28.8031 188.213 28.3808C187.006 28.0072 185.91 27.3494 185.01 26.4581C184.188 25.6544 183.73 24.5452 183.745 23.3931H187.221C187.2 24.0548 187.484 24.6911 187.991 25.1115C188.544 25.5629 189.194 25.8782 189.89 26.0319C190.624 26.211 191.378 26.3044 192.14 26.3044H198.955C200.001 26.2908 201.036 26.0767 202.001 25.6661C203.005 25.2399 203.675 24.4887 203.675 23.397V22.5972C202.936 22.9241 202.164 23.1732 201.377 23.3328C200.587 23.5001 199.785 23.5916 198.978 23.6052H192.142C190.854 23.5955 189.577 23.3775 188.358 22.9572C187.122 22.5563 185.995 21.8655 185.076 20.9411C184.196 20.0595 183.714 18.8569 183.741 17.6095V15.5506ZM208.567 22.9475H210.592L210.534 15.5525H244.184V22.9475H246.058V28.9977H242.642V25.5454H211.961L211.983 29.0055H208.567V22.9475ZM240.787 22.9475V18.1836H213.988V22.9669L240.787 22.9475Z" fill="#FDEB01"/>
<path d="M23.4943 17.7032L20.0783 15.7825C19.5753 15.6813 18.5714 15.5801 17.7667 15.5801C10.2305 15.5801 4 21.7451 4 29.43C4 37.1149 10.2305 43.28 17.7667 43.28C18.5714 43.28 19.3742 43.1788 20.0783 43.0776L23.4943 41.1568V43.28H32.8391V15.5801H23.4943V17.7032ZM23.4943 33.9779H18.0685C15.5558 33.9779 13.2462 32.2596 13.2462 29.4281C13.2462 26.5966 15.6583 24.8782 18.0685 24.8782H23.4943V33.976V33.9779Z" fill="#E8E1CB"/>
<path d="M52.3351 18.9156V26.295C52.3351 28.7217 50.8282 30.946 48.1144 30.946C45.1993 30.946 43.6925 28.6205 43.6925 26.295V15.5801H34.748V26.3981C34.748 33.7775 38.9688 39.8433 44.9981 39.8433C46.4044 39.8433 47.712 39.7421 48.9171 39.3373L52.2326 36.7082L52.3332 36.6031V39.2361C52.3332 41.0556 51.4279 41.9664 49.6193 41.9664H40.1739V50.9629H51.0275C57.5598 50.9629 61.2776 46.9191 61.2776 39.7421V15.5801H52.3332V18.9156H52.3351Z" fill="#E8E1CB"/>
<path d="M112.928 15.5801V17.7032L109.512 15.7825C109.009 15.6813 108.005 15.5801 107.2 15.5801C99.6641 15.5801 93.4336 21.7471 93.4336 29.43C93.4336 37.113 99.6641 43.28 107.2 43.28C108.005 43.28 108.808 43.1788 109.512 43.0776L112.928 41.1568V43.28H122.273V15.5801H112.928ZM112.928 33.9779H107.502C104.989 33.9779 102.68 32.2596 102.68 29.4281C102.68 26.5966 105.092 24.8782 107.502 24.8782H112.928V33.976V33.9779Z" fill="#E8E1CB"/>
<path d="M78.3625 15.5801C77.5578 15.5801 76.5538 15.6813 76.0509 15.7825L72.6349 17.7032V15.5801H63.1895V50.9629H72.6349V41.1568L76.0509 43.0776C76.755 43.1788 77.5578 43.28 78.3625 43.28C85.8987 43.28 92.1292 37.113 92.1292 29.43C92.1292 21.7471 85.8987 15.5801 78.3625 15.5801ZM78.0607 33.9779H72.6349V24.8802H78.0607C80.4728 24.8802 82.883 26.4973 82.883 29.43C82.883 32.3627 80.5715 33.9799 78.0607 33.9799" fill="#E8E1CB"/>
<path fill-rule="evenodd" clip-rule="evenodd" d="M134.781 26.566L134.746 26.527C133.821 25.5618 133.837 24.0264 134.781 23.0806C135.738 22.1193 137.29 22.1193 138.247 23.0806L141.065 25.914L143.884 23.0787C144.839 22.1173 146.387 22.1154 147.344 23.0748C147.344 23.0748 147.346 23.0767 147.348 23.0787C148.304 24.04 148.306 25.5968 147.352 26.5601C147.352 26.5601 147.35 26.5621 147.348 26.564L144.532 29.3916L147.385 32.2912C148.248 33.3382 148.105 34.8911 147.064 35.761C146.137 36.5336 144.791 36.5161 143.886 35.7182L141.067 32.8925L138.251 35.7182C137.293 36.6795 135.742 36.6795 134.785 35.7182L134.748 35.6812C133.823 34.716 133.839 33.1805 134.783 32.2348L137.601 29.3936L134.783 26.5718L134.781 26.566ZM135.632 25.698L138.891 28.9713C139.125 29.2087 139.125 29.5901 138.891 29.8275L135.632 33.0891C135.398 33.3246 135.266 33.6437 135.268 33.9765C135.268 34.2956 135.388 34.605 135.607 34.8386L135.634 34.8658C136.121 35.3562 136.912 35.3562 137.4 34.8658L140.642 31.6004C140.876 31.3629 141.255 31.3629 141.491 31.5965C141.491 31.5965 141.493 31.5984 141.495 31.6004L144.737 34.8619C145.224 35.3504 146.013 35.3504 146.501 34.858C146.733 34.6245 146.865 34.3073 146.865 33.9765C146.865 33.6554 146.745 33.346 146.526 33.1124L143.257 29.8256C143.021 29.5901 143.021 29.2087 143.253 28.9713C143.253 28.9713 143.255 28.9693 143.257 28.9674L146.489 25.6941C146.977 25.2037 146.977 24.4098 146.489 23.9194C146.002 23.429 145.213 23.429 144.725 23.9194L141.493 27.1945C141.257 27.43 140.878 27.43 140.642 27.1945L137.4 23.9291C136.901 23.4504 136.11 23.4698 135.634 23.9719C135.183 24.4467 135.173 25.1901 135.609 25.6786L135.636 25.6941L135.632 25.698Z" fill="#E8E1CB"/>
</g>
<defs>
<clipPath id="clip0_524_318">
<rect width="242" height="37" fill="white" transform="translate(4 14)"/>
</clipPath>
</defs>
</svg>
