<svg width="250" height="64" viewBox="0 0 250 64" fill="none" xmlns="http://www.w3.org/2000/svg">
<path fill-rule="evenodd" clip-rule="evenodd" d="M147.349 44.6516H174.166V55.8322H170.217V47.9601H151.322V55.8322H147.349V44.6516ZM185.496 56.1693C183.747 56.1693 182.123 55.8865 180.626 55.3208C179.13 54.7552 177.948 54.0153 177.081 53.1087C176.214 52.1983 175.779 51.2453 175.779 50.2458C175.779 49.2463 176.214 48.2661 177.081 47.3518C177.948 46.4337 179.13 45.6937 180.626 45.1281C182.123 44.5625 183.743 44.2797 185.496 44.2797C186.604 44.2797 187.619 44.4269 188.548 44.7174C189.477 45.008 190.289 45.407 190.993 45.9145L191.218 44.6632H194.965V55.8438H191.218L191.016 54.546C190.312 55.0535 189.492 55.4526 188.559 55.7431C187.623 56.0337 186.604 56.1809 185.496 56.1809V56.1693ZM180 50.2225C180 51.253 180.525 52.055 181.571 52.6361C182.616 53.2172 183.926 53.5078 185.496 53.5078C187.067 53.5078 188.377 53.2172 189.422 52.6361C190.468 52.055 190.993 51.2492 190.993 50.2225C190.993 49.5833 190.744 49.0099 190.243 48.5102C189.741 48.0104 189.073 47.623 188.233 47.348C187.397 47.0729 186.484 46.9334 185.496 46.9334C184.509 46.9334 183.596 47.0729 182.76 47.348C181.924 47.623 181.252 48.0104 180.75 48.5102C180.249 49.0099 180 49.5794 180 50.2225ZM207.058 44.3184C207.151 44.3184 211.796 44.3184 211.889 44.3184C213.53 44.3455 215.057 44.6283 216.464 45.1668C218.447 45.9223 221.012 47.9291 221.012 50.2419C221.012 52.5547 218.47 54.6003 216.464 55.3635C215.042 55.9058 213.498 56.1886 211.835 56.2119C211.757 56.2119 207.135 56.2119 207.058 56.2119C204.815 56.2119 202.972 55.7199 201.538 54.7359V58.4627H197.566V44.6477H201.313L201.515 45.8099C202.934 44.8104 204.784 44.3107 207.058 44.3107V44.3184ZM201.561 50.2651C201.561 50.9354 201.81 51.5204 202.304 52.0201C202.798 52.5199 203.462 52.8995 204.302 53.1591C205.138 53.4187 206.059 53.5504 207.062 53.5504C207.132 53.5504 211.749 53.5504 211.819 53.5504C212.741 53.5349 213.588 53.4032 214.365 53.163C215.205 52.9034 215.87 52.5237 216.363 52.024C216.857 51.5242 217.102 50.9392 217.102 50.269C217.102 49.5988 216.853 49.0177 216.363 48.5257C215.87 48.0337 215.205 47.654 214.365 47.3867C213.596 47.1388 212.76 47.007 211.854 46.9877C211.773 46.9877 207.143 46.9877 207.062 46.9877C206.059 46.9877 205.138 47.1194 204.302 47.379C203.466 47.6385 202.798 48.022 202.304 48.5179C201.81 49.0177 201.561 49.6027 201.561 50.2729V50.2651ZM223.721 44.6516H227.694V48.0298L245.053 44.0898V47.2666L231.103 50.3116L245.038 53.0545V56.2312L227.694 52.547V55.8555H223.721V44.6516Z" fill="#FFFF00"/>
<path fill-rule="evenodd" clip-rule="evenodd" d="M157.81 35.8683C154.44 35.5002 150.557 35.0199 148.271 32.6877C147.494 31.8935 147.129 31.045 147.129 30.185C147.129 29.325 147.482 28.4417 148.271 27.6591C150.491 25.4586 154.425 24.8233 157.81 24.4552V22.8242H161.693V24.4552C165.145 24.831 168.869 25.1138 171.279 27.6707C172.044 28.4804 172.418 29.325 172.418 30.185C172.418 31.045 172.033 31.878 171.279 32.6877C169.013 35.1128 165.324 35.3995 161.693 35.8683V39.878H157.81V35.8683ZM151.299 30.1153C151.299 30.9172 151.727 31.5642 152.582 32.0523C153.437 32.5404 156.508 32.8659 157.81 33.0247V27.2949C156.508 27.4693 153.437 27.7986 152.582 28.2789C151.727 28.7593 151.299 29.3714 151.299 30.1153ZM161.693 33.0247C162.98 32.8504 166.128 32.5249 166.976 32.0523C167.823 31.5797 168.247 30.9482 168.247 30.1618C168.247 29.3753 167.823 28.7787 166.976 28.2906C166.128 27.8024 162.98 27.4693 161.693 27.2949V33.0247ZM174.248 24.7148H178.198V27.0121C178.198 28.2208 178.738 29.1429 179.822 29.7782C180.903 30.4136 182.228 30.7312 183.795 30.7312C183.873 30.7312 191.491 30.7312 191.565 30.7312C192.999 30.7041 194.204 30.4058 195.176 29.8363C196.198 29.2397 196.91 28.3061 196.91 27.016V24.7186H200.859V32.986C200.859 34.4736 200.396 35.7327 199.475 36.771C198.554 37.8053 197.364 38.584 195.911 39.0993C194.535 39.5874 193.1 39.847 191.6 39.8741C191.511 39.8741 183.884 39.8741 183.795 39.8741C182.287 39.8741 180.798 39.6339 179.329 39.1535C177.859 38.6731 176.643 37.9487 175.687 36.9879C174.726 36.0271 174.248 34.8726 174.248 33.5322H178.198C178.198 34.3341 178.489 34.9811 179.076 35.4693C179.659 35.9574 180.382 36.3061 181.237 36.5075C182.092 36.7128 182.944 36.8136 183.795 36.8136C183.865 36.8136 191.476 36.8136 191.546 36.8136C192.782 36.7903 193.936 36.5501 195.009 36.093C196.144 35.6126 196.906 34.7642 196.906 33.5361V32.6412C196.132 32.9898 195.261 33.2688 194.294 33.4741C193.4 33.6639 192.49 33.7647 191.561 33.7802C191.487 33.7802 183.869 33.7802 183.791 33.7802C182.403 33.7802 180.969 33.5361 179.492 33.0479C178.015 32.5598 176.771 31.8082 175.76 30.7971C174.75 29.786 174.244 28.5346 174.244 27.047V24.7303L174.248 24.7148ZM202.476 33.0479H204.781L204.715 24.7148H242.978V33.0479H245.108V39.8508H241.225V35.9574H206.339L206.363 39.8508H202.48V33.0479H202.476ZM239.115 33.0479V27.6591H208.641V33.0479H239.115Z" fill="#FFFF00"/>
<path fill-rule="evenodd" clip-rule="evenodd" d="M160.524 16.9956H151.281V20.9472H147.316V9.78207H151.281V13.691H160.524V9.78207H164.489V20.9666H160.524V16.9918V16.9956ZM177.153 21.2842C175.213 21.2842 173.41 21.0014 171.742 20.4358C170.079 19.8702 168.757 19.1303 167.777 18.216C166.798 17.3017 166.312 16.3525 166.312 15.3685C166.312 14.3845 166.802 13.4121 167.777 12.4901C168.757 11.568 170.079 10.8242 171.742 10.2586C173.406 9.69297 175.209 9.41016 177.153 9.41016C179.096 9.41016 180.877 9.69297 182.54 10.2586C184.204 10.8242 185.525 11.568 186.505 12.4901C187.485 13.4121 187.97 14.3729 187.97 15.3685C187.97 16.3641 187.481 17.3017 186.505 18.216C185.525 19.1303 184.204 19.8702 182.54 20.4358C180.877 21.0014 179.081 21.2842 177.153 21.2842ZM170.568 15.2794C170.568 15.9806 170.891 16.5617 171.532 17.0305C172.174 17.4993 172.998 17.8441 174.008 18.0687C175.015 18.2934 176.064 18.4019 177.157 18.4019C178.249 18.4019 179.252 18.2934 180.259 18.0765C181.265 17.8595 182.097 17.5225 182.746 17.0615C183.395 16.6005 183.722 16.0271 183.722 15.3414C183.722 14.6557 183.392 14.1056 182.735 13.6445C182.078 13.1835 181.246 12.8426 180.235 12.6179C179.225 12.3932 178.202 12.2847 177.157 12.2847C176.111 12.2847 175.062 12.3971 174.055 12.6179C173.048 12.8426 172.212 13.1796 171.556 13.6329C170.899 14.0862 170.568 14.6324 170.568 15.2755V15.2794ZM214.709 21.2842C213.605 21.2842 212.567 21.137 211.596 20.8387L211.079 20.9511H207.429V9.78594H211.596V13.1796C212.567 12.8813 213.605 12.7341 214.709 12.7341C216.023 12.7341 217.236 12.9433 218.351 13.3579C219.463 13.7763 220.345 14.3148 220.994 14.9772C221.644 15.6397 221.97 16.3215 221.97 17.0189C221.97 17.7162 221.644 18.3787 220.994 19.0411C220.345 19.7036 219.463 20.2421 218.351 20.6605C217.24 21.0789 216.027 21.2842 214.709 21.2842ZM211.662 16.9956C211.662 17.5031 211.949 17.8983 212.525 18.1888C213.1 18.4794 213.827 18.6227 214.709 18.6227C215.591 18.6227 216.322 18.4794 216.905 18.1888C217.488 17.8983 217.78 17.4993 217.78 16.9956C217.78 16.492 217.488 16.1123 216.905 15.8218C216.322 15.5312 215.591 15.3879 214.709 15.3879C213.827 15.3879 213.119 15.5351 212.536 15.8218C211.953 16.1123 211.662 16.5036 211.662 16.9956ZM222.802 9.73945H226.992V20.9046H222.802V9.73945ZM230.036 20.9472V9.78207H234.292V17.4838L238.571 9.78207H245.137V20.9472H240.88V13.1758L236.535 20.9666L230.039 20.9433L230.036 20.9472Z" fill="#FC225F"/>
<path fill-rule="evenodd" clip-rule="evenodd" d="M236.071 5.56641C236.207 6.2405 236.386 6.71314 236.604 6.98045C236.825 7.25163 237.093 7.38335 237.416 7.38335C237.739 7.38335 238.007 7.24776 238.228 6.98045C238.45 6.71314 238.633 6.2405 238.78 5.56641H242.115C242.03 6.17851 241.785 6.72476 241.388 7.20902C240.988 7.69328 240.452 8.07682 239.775 8.35575C239.099 8.63856 238.314 8.77803 237.416 8.77803C236.518 8.77803 235.752 8.63856 235.076 8.35575C234.4 8.07294 233.863 7.69328 233.463 7.20902C233.063 6.72476 232.814 6.17851 232.717 5.56641H236.071Z" fill="#FC225F"/>
<path fill-rule="evenodd" clip-rule="evenodd" d="M190.088 9.78125H200.011C200.804 9.78125 201.515 9.95946 202.149 10.3159C202.783 10.6723 203.276 11.1217 203.626 11.6563C203.976 12.1909 204.151 12.7062 204.151 13.1982C204.151 13.9265 203.852 14.5735 203.257 15.1391C203.735 15.4374 204.108 15.79 204.376 16.2006C204.645 16.6113 204.781 17.0452 204.781 17.5062C204.781 18.1299 204.602 18.7072 204.244 19.2379C203.887 19.7648 203.389 20.1832 202.755 20.4892C202.122 20.7953 201.414 20.9464 200.637 20.9464H190.088V9.78125ZM199.953 18.25C201.123 18.25 201.096 16.5764 199.953 16.5764H193.78V18.25H199.953ZM199.37 14.1357C200.606 14.1357 200.598 12.4621 199.304 12.4621H193.784V14.1357H199.374H199.37Z" fill="#FC225F"/>
<path fill-rule="evenodd" clip-rule="evenodd" d="M125.622 28.5993L125.593 28.568C125.223 28.1827 125.037 27.6866 125.037 27.1906C125.037 26.6946 125.233 26.172 125.622 25.7844C126.011 25.3943 126.523 25.1992 127.035 25.1992C127.547 25.1992 128.057 25.3943 128.446 25.7819L130.746 28.0719L133.044 25.7819C133.433 25.3943 133.945 25.1992 134.457 25.1992C134.969 25.1992 135.479 25.3943 135.868 25.7819C136.257 26.172 136.453 26.6825 136.453 27.1906C136.453 27.6987 136.257 28.2092 135.868 28.5968L133.57 30.8892L135.895 33.2105C136.264 33.5958 136.45 34.0918 136.45 34.5878C136.45 35.0839 136.255 35.6064 135.866 35.9941C135.477 36.3842 134.964 36.5792 134.452 36.5792C133.94 36.5792 133.43 36.3842 133.041 35.9941L130.744 33.7065L128.446 35.9965C128.057 36.3842 127.545 36.5792 127.033 36.5792C126.521 36.5792 126.011 36.3842 125.622 35.9941L125.593 35.9628C125.223 35.5775 125.037 35.0815 125.037 34.5854C125.037 34.0894 125.233 33.5669 125.622 33.1792L127.919 30.8868L125.622 28.5968V28.5993ZM126.315 27.9082L128.958 30.5425C129.149 30.7327 129.149 31.0433 128.958 31.2336L126.315 33.8679C126.117 34.0653 126.018 34.3254 126.018 34.5854C126.018 34.8455 126.11 35.0863 126.293 35.2813L126.315 35.303C126.511 35.4981 126.772 35.5968 127.033 35.5968C127.294 35.5968 127.552 35.498 127.753 35.3006L130.396 32.6663C130.587 32.4761 130.898 32.4761 131.089 32.6663L133.732 35.3006C133.93 35.498 134.189 35.5968 134.45 35.5968C134.711 35.5968 134.969 35.498 135.17 35.3006C135.368 35.1031 135.467 34.8431 135.467 34.583C135.467 34.323 135.375 34.0822 135.191 33.8871L132.527 31.2312C132.336 31.0409 132.336 30.7303 132.527 30.5401L135.17 27.9058C135.368 27.7083 135.467 27.4483 135.467 27.1882C135.467 26.9281 135.368 26.6681 135.17 26.4706C134.972 26.2732 134.711 26.1744 134.45 26.1744C134.189 26.1744 133.93 26.2732 133.732 26.4706L131.089 29.1049C130.898 29.2952 130.587 29.2952 130.396 29.1049L127.753 26.4706C127.555 26.2732 127.294 26.1744 127.033 26.1744C126.772 26.1744 126.513 26.2732 126.315 26.4706C126.117 26.6681 126.018 26.9281 126.018 27.1882C126.018 27.4483 126.11 27.689 126.293 27.8841L126.315 27.9034V27.9082Z" fill="white"/>
<path fill-rule="evenodd" clip-rule="evenodd" d="M104.39 39.6898V34.2234C103.134 34.8859 101.801 35.2152 100.39 35.2152C99.7291 35.2152 99.1927 35.006 98.7885 34.5876C98.3803 34.1692 98.1782 33.6307 98.1782 32.976C98.1782 32.3212 98.3803 31.7866 98.7885 31.3798C99.1927 30.973 99.733 30.7716 100.39 30.7716C101.494 30.7716 102.434 30.3764 103.216 29.5939C103.997 28.8113 104.39 27.8699 104.39 26.7658C104.39 25.6617 103.997 24.728 103.216 23.9532C102.434 23.1822 101.494 22.7948 100.39 22.7948C99.286 22.7948 98.357 23.1784 97.5835 23.9493C96.81 24.7203 96.4252 25.6539 96.4252 26.7542V39.6859C96.4252 40.3445 96.2153 40.8791 95.7994 41.2859C95.3796 41.6888 94.8393 41.8941 94.1785 41.8941C93.5177 41.8941 92.9852 41.6888 92.577 41.2859C92.1689 40.8791 91.9629 40.3445 91.9629 39.6859V26.7542C91.9629 24.3793 92.7714 22.3842 94.3923 20.7687C96.0132 19.1532 98.0111 18.3435 100.39 18.3435C102.769 18.3435 104.774 19.1532 106.407 20.7687C108.036 22.3842 108.848 24.3793 108.848 26.7542V39.6859C108.848 40.3445 108.646 40.8791 108.238 41.2859C107.834 41.6888 107.297 41.8941 106.636 41.8941C105.976 41.8941 105.439 41.6888 105.015 41.2859C104.596 40.8791 104.39 40.3445 104.39 39.6859V39.6898Z" fill="white"/>
<path fill-rule="evenodd" clip-rule="evenodd" d="M73.2415 30.7717C74.3454 30.7717 75.29 30.3765 76.0713 29.5939C76.8526 28.8114 77.2451 27.87 77.2451 26.7658C77.2451 25.6617 76.8526 24.7242 76.0713 23.9533C75.29 23.1823 74.3454 22.7949 73.2415 22.7949C72.1376 22.7949 71.2086 23.1784 70.439 23.9494C69.6655 24.7203 69.2807 25.654 69.2807 26.7581V39.6898C69.2807 40.3484 69.0708 40.883 68.6549 41.2898C68.239 41.6927 67.6987 41.8981 67.0379 41.8981C66.3771 41.8981 65.8679 41.6889 65.452 41.2743C65.0322 40.8598 64.8223 40.329 64.8223 39.6937V26.762C64.8223 24.3872 65.6347 22.392 67.2516 20.7765C68.8725 19.161 70.8705 18.3513 73.2493 18.3513C75.6282 18.3513 77.6377 19.161 79.2664 20.7765C80.8989 22.392 81.7113 24.391 81.7113 26.7658C81.7113 29.1407 80.8989 31.1436 79.2664 32.7707C77.6377 34.3978 75.632 35.2114 73.2493 35.2114C72.5885 35.2114 72.056 35.0022 71.6478 34.5838C71.2436 34.1654 71.0376 33.6269 71.0376 32.9721C71.0376 32.3174 71.2436 31.7828 71.6478 31.376C72.056 30.9692 72.5924 30.7678 73.2493 30.7678L73.2415 30.7717Z" fill="white"/>
<path fill-rule="evenodd" clip-rule="evenodd" d="M53.7166 34.7774C53.7166 36.7765 53.0325 38.4617 51.6681 39.837C50.2999 41.2123 48.6168 41.898 46.6111 41.898C44.6054 41.898 42.8874 41.2162 41.5192 39.8564C40.1509 38.4966 39.4707 36.8036 39.4707 34.7813V34.452C39.4707 33.7934 39.6767 33.2627 40.081 32.8559C40.493 32.4491 41.0216 32.2477 41.6863 32.2477C42.351 32.2477 42.8874 32.4491 43.3072 32.8559C43.7231 33.2627 43.933 33.7934 43.933 34.452V34.7813C43.933 35.529 44.1934 36.1605 44.7104 36.6796C45.2274 37.1949 45.8609 37.4506 46.6111 37.4506C47.3613 37.4506 47.9871 37.191 48.4963 36.6796C49.0016 36.1605 49.2543 35.529 49.2543 34.7813V31.6201C48.4186 31.9687 47.5362 32.1469 46.6111 32.1469C44.5821 32.1469 42.8874 31.4651 41.5192 30.1014C40.1509 28.7377 39.4707 27.0448 39.4707 25.0147V20.5595C39.4707 19.9009 39.6767 19.3663 40.081 18.9595C40.493 18.5527 41.0216 18.3474 41.6863 18.3474C42.351 18.3474 42.8874 18.5489 43.3072 18.9595C43.7231 19.3663 43.933 19.9009 43.933 20.5595V25.0263C43.933 25.7702 44.1934 26.4094 44.7104 26.9247C45.2274 27.4438 45.8609 27.7033 46.6111 27.7033C47.3613 27.7033 47.9871 27.4477 48.4963 26.9285C49.0016 26.4094 49.2543 25.7818 49.2543 25.0341V20.5634C49.2543 19.9242 49.4681 19.3934 49.8995 18.975C50.3271 18.5566 50.8674 18.3474 51.5049 18.3474C52.1423 18.3474 52.6982 18.5489 53.1063 18.9556C53.5145 19.3624 53.7205 19.8932 53.7205 20.5556V34.7736L53.7166 34.7774Z" fill="white"/>
<path fill-rule="evenodd" clip-rule="evenodd" d="M23.0674 39.6898V34.2234C21.8119 34.8859 20.4786 35.2152 19.0676 35.2152C18.403 35.2152 17.8743 35.006 17.4662 34.5876C17.0581 34.1692 16.8559 33.6307 16.8559 32.976C16.8559 32.3212 17.0581 31.7866 17.4662 31.3798C17.8743 30.973 18.4068 30.7716 19.0676 30.7716C20.1715 30.7716 21.1122 30.3764 21.8935 29.5939C22.6748 28.8113 23.0674 27.8699 23.0674 26.7658C23.0674 25.6617 22.6748 24.728 21.8935 23.9532C21.1122 23.1822 20.1715 22.7948 19.0676 22.7948C17.9637 22.7948 17.0308 23.1784 16.2573 23.9493C15.4877 24.7203 15.099 25.6539 15.099 26.7542V39.6859C15.099 40.3445 14.8891 40.8791 14.4693 41.2859C14.0534 41.6888 13.5131 41.8941 12.8523 41.8941C12.1915 41.8941 11.6551 41.6888 11.247 41.2859C10.8427 40.8791 10.6367 40.3445 10.6367 39.6859V26.7542C10.6367 24.3793 11.4452 22.3842 13.0661 20.7687C14.6831 19.1532 16.681 18.3435 19.0638 18.3435C21.4465 18.3435 23.4522 19.1532 25.0808 20.7687C26.7095 22.3842 27.5258 24.3793 27.5258 26.7542V39.6859C27.5258 40.3445 27.3236 40.8791 26.9155 41.2859C26.5074 41.6888 25.971 41.8941 25.3102 41.8941C24.6494 41.8941 24.113 41.6888 23.6932 41.2859C23.2734 40.8791 23.0674 40.3445 23.0674 39.6859V39.6898Z" fill="white"/>
</svg>
