<svg width="250" height="64" viewBox="0 0 250 64" fill="none" xmlns="http://www.w3.org/2000/svg">
<path fill-rule="evenodd" clip-rule="evenodd" d="M147.22 35.8274H174.037V47.008H170.088V39.1359H151.193V47.008H147.22V35.8274ZM185.368 47.345C183.618 47.345 181.994 47.0622 180.497 46.4966C179.001 45.931 177.819 45.191 176.952 44.2845C176.085 43.3741 175.65 42.4211 175.65 41.4216C175.65 40.422 176.085 39.4419 176.952 38.5276C177.819 37.6095 179.001 36.8695 180.497 36.3039C181.994 35.7383 183.615 35.4555 185.368 35.4555C186.475 35.4555 187.49 35.6027 188.419 35.8932C189.348 36.1838 190.16 36.5828 190.864 37.0903L191.089 35.839H194.836V47.0196H191.089L190.887 45.7218C190.184 46.2293 189.363 46.6283 188.431 46.9189C187.494 47.2095 186.475 47.3567 185.368 47.3567V47.345ZM179.871 41.3983C179.871 42.4288 180.396 43.2308 181.442 43.8119C182.487 44.393 183.797 44.6835 185.368 44.6835C186.938 44.6835 188.248 44.393 189.293 43.8119C190.339 43.2308 190.864 42.425 190.864 41.3983C190.864 40.7591 190.615 40.1857 190.114 39.686C189.612 39.1862 188.944 38.7988 188.104 38.5237C187.268 38.2487 186.355 38.1092 185.368 38.1092C184.38 38.1092 183.467 38.2487 182.631 38.5237C181.795 38.7988 181.123 39.1862 180.622 39.686C180.12 40.1857 179.871 40.7552 179.871 41.3983ZM206.929 35.4942C207.022 35.4942 211.667 35.4942 211.76 35.4942C213.401 35.5213 214.928 35.8041 216.335 36.3426C218.318 37.0981 220.883 39.1049 220.883 41.4177C220.883 43.7305 218.341 45.776 216.335 46.5392C214.913 47.0816 213.37 47.3644 211.706 47.3877C211.628 47.3877 207.007 47.3877 206.929 47.3877C204.686 47.3877 202.844 46.8957 201.409 45.9116V49.6385H197.437V35.8235H201.184L201.386 36.9857C202.805 35.9862 204.655 35.4865 206.929 35.4865V35.4942ZM201.433 41.4409C201.433 42.1111 201.681 42.6961 202.175 43.1959C202.669 43.6957 203.333 44.0753 204.173 44.3349C205.009 44.5944 205.93 44.7262 206.933 44.7262C207.003 44.7262 211.62 44.7262 211.69 44.7262C212.612 44.7107 213.459 44.5789 214.236 44.3388C215.076 44.0792 215.741 43.6995 216.234 43.1998C216.728 42.7 216.973 42.115 216.973 41.4448C216.973 40.7746 216.724 40.1935 216.234 39.7015C215.741 39.2095 215.076 38.8298 214.236 38.5625C213.467 38.3145 212.631 38.1828 211.725 38.1635C211.644 38.1635 207.014 38.1635 206.933 38.1635C205.93 38.1635 205.009 38.2952 204.173 38.5547C203.337 38.8143 202.669 39.1978 202.175 39.6937C201.681 40.1935 201.433 40.7785 201.433 41.4487V41.4409ZM223.592 35.8274H227.565V39.2056L244.924 35.2656V38.4424L230.974 41.4874L244.909 44.2303V47.407L227.565 43.7228V47.0312H223.592V35.8274Z" fill="#FFFF00"/>
<path fill-rule="evenodd" clip-rule="evenodd" d="M157.681 27.0441C154.311 26.676 150.428 26.1956 148.143 23.8634C147.365 23.0693 147 22.2208 147 21.3608C147 20.5007 147.353 19.6174 148.143 18.8349C150.362 16.6344 154.296 15.999 157.681 15.631V14H161.564V15.631C165.016 16.0068 168.74 16.2896 171.15 18.8465C171.915 19.6562 172.289 20.5007 172.289 21.3608C172.289 22.2208 171.904 23.0538 171.15 23.8634C168.884 26.2886 165.195 26.5753 161.564 27.0441V31.0538H157.681V27.0441ZM151.171 21.291C151.171 22.093 151.598 22.7399 152.453 23.2281C153.308 23.7162 156.379 24.0416 157.681 24.2005V18.4707C156.379 18.645 153.308 18.9743 152.453 19.4547C151.598 19.9351 151.171 20.5472 151.171 21.291ZM161.564 24.2005C162.851 24.0261 165.999 23.7007 166.847 23.2281C167.694 22.7554 168.118 22.124 168.118 21.3375C168.118 20.5511 167.694 19.9545 166.847 19.4663C165.999 18.9782 162.851 18.645 161.564 18.4707V24.2005ZM174.119 15.8906H178.069V18.1879C178.069 19.3966 178.609 20.3186 179.693 20.954C180.774 21.5893 182.099 21.907 183.666 21.907C183.744 21.907 191.362 21.907 191.436 21.907C192.87 21.8799 194.075 21.5816 195.047 21.0121C196.069 20.4155 196.781 19.4818 196.781 18.1918V15.8944H200.73V24.1617C200.73 25.6494 200.267 26.9085 199.346 27.9467C198.425 28.9811 197.235 29.7598 195.782 30.2751C194.406 30.7632 192.971 31.0228 191.471 31.0499C191.382 31.0499 183.755 31.0499 183.666 31.0499C182.158 31.0499 180.669 30.8097 179.2 30.3293C177.73 29.8489 176.514 29.1245 175.558 28.1637C174.598 27.2029 174.119 26.0484 174.119 24.708H178.069C178.069 25.5099 178.36 26.1569 178.947 26.645C179.53 27.1332 180.253 27.4818 181.108 27.6833C181.963 27.8886 182.815 27.9893 183.666 27.9893C183.736 27.9893 191.347 27.9893 191.417 27.9893C192.653 27.9661 193.807 27.7259 194.88 27.2688C196.015 26.7884 196.777 25.94 196.777 24.7119V23.817C196.003 24.1656 195.133 24.4446 194.165 24.6499C193.271 24.8397 192.361 24.9404 191.432 24.9559C191.358 24.9559 183.74 24.9559 183.662 24.9559C182.274 24.9559 180.84 24.7119 179.363 24.2237C177.886 23.7356 176.642 22.984 175.631 21.9729C174.621 20.9617 174.116 19.7104 174.116 18.2228V15.9061L174.119 15.8906ZM202.347 24.2237H204.652L204.586 15.8906H242.849V24.2237H244.98V31.0266H241.096V27.1332H206.211L206.234 31.0266H202.351V24.2237H202.347ZM238.986 24.2237V18.8349H208.512V24.2237H238.986Z" fill="#FFFF00"/>
<path fill-rule="evenodd" clip-rule="evenodd" d="M125.622 28.5993L125.593 28.568C125.223 28.1827 125.037 27.6866 125.037 27.1906C125.037 26.6946 125.233 26.172 125.622 25.7844C126.011 25.3943 126.523 25.1992 127.035 25.1992C127.547 25.1992 128.057 25.3943 128.446 25.7819L130.746 28.0719L133.044 25.7819C133.433 25.3943 133.945 25.1992 134.457 25.1992C134.969 25.1992 135.479 25.3943 135.868 25.7819C136.257 26.172 136.453 26.6825 136.453 27.1906C136.453 27.6987 136.257 28.2092 135.868 28.5968L133.57 30.8892L135.895 33.2105C136.264 33.5958 136.45 34.0918 136.45 34.5878C136.45 35.0839 136.255 35.6064 135.866 35.9941C135.477 36.3842 134.964 36.5792 134.452 36.5792C133.94 36.5792 133.43 36.3842 133.041 35.9941L130.744 33.7065L128.446 35.9965C128.057 36.3842 127.545 36.5792 127.033 36.5792C126.521 36.5792 126.011 36.3842 125.622 35.9941L125.593 35.9628C125.223 35.5775 125.037 35.0815 125.037 34.5854C125.037 34.0894 125.233 33.5669 125.622 33.1792L127.919 30.8868L125.622 28.5968V28.5993ZM126.315 27.9082L128.958 30.5425C129.149 30.7327 129.149 31.0433 128.958 31.2336L126.315 33.8679C126.117 34.0653 126.018 34.3254 126.018 34.5854C126.018 34.8455 126.11 35.0863 126.293 35.2813L126.315 35.303C126.511 35.4981 126.772 35.5968 127.033 35.5968C127.294 35.5968 127.552 35.498 127.753 35.3006L130.396 32.6663C130.587 32.4761 130.898 32.4761 131.089 32.6663L133.732 35.3006C133.93 35.498 134.189 35.5968 134.45 35.5968C134.711 35.5968 134.969 35.498 135.17 35.3006C135.368 35.1031 135.467 34.8431 135.467 34.583C135.467 34.323 135.375 34.0822 135.191 33.8871L132.527 31.2312C132.336 31.0409 132.336 30.7303 132.527 30.5401L135.17 27.9058C135.368 27.7083 135.467 27.4483 135.467 27.1882C135.467 26.9281 135.368 26.6681 135.17 26.4706C134.972 26.2732 134.711 26.1744 134.45 26.1744C134.189 26.1744 133.93 26.2732 133.732 26.4706L131.089 29.1049C130.898 29.2952 130.587 29.2952 130.396 29.1049L127.753 26.4706C127.555 26.2732 127.294 26.1744 127.033 26.1744C126.772 26.1744 126.513 26.2732 126.315 26.4706C126.117 26.6681 126.018 26.9281 126.018 27.1882C126.018 27.4483 126.11 27.689 126.293 27.8841L126.315 27.9034V27.9082Z" fill="white"/>
<path fill-rule="evenodd" clip-rule="evenodd" d="M104.39 39.6898V34.2234C103.134 34.8859 101.801 35.2152 100.39 35.2152C99.7291 35.2152 99.1927 35.006 98.7885 34.5876C98.3803 34.1692 98.1782 33.6307 98.1782 32.976C98.1782 32.3212 98.3803 31.7866 98.7885 31.3798C99.1927 30.973 99.733 30.7716 100.39 30.7716C101.494 30.7716 102.434 30.3764 103.216 29.5939C103.997 28.8113 104.39 27.8699 104.39 26.7658C104.39 25.6617 103.997 24.728 103.216 23.9532C102.434 23.1822 101.494 22.7948 100.39 22.7948C99.286 22.7948 98.357 23.1784 97.5835 23.9493C96.81 24.7203 96.4252 25.6539 96.4252 26.7542V39.6859C96.4252 40.3445 96.2153 40.8791 95.7994 41.2859C95.3796 41.6888 94.8393 41.8941 94.1785 41.8941C93.5177 41.8941 92.9852 41.6888 92.577 41.2859C92.1689 40.8791 91.9629 40.3445 91.9629 39.6859V26.7542C91.9629 24.3793 92.7714 22.3842 94.3923 20.7687C96.0132 19.1532 98.0111 18.3435 100.39 18.3435C102.769 18.3435 104.774 19.1532 106.407 20.7687C108.036 22.3842 108.848 24.3793 108.848 26.7542V39.6859C108.848 40.3445 108.646 40.8791 108.238 41.2859C107.834 41.6888 107.297 41.8941 106.636 41.8941C105.976 41.8941 105.439 41.6888 105.015 41.2859C104.596 40.8791 104.39 40.3445 104.39 39.6859V39.6898Z" fill="white"/>
<path fill-rule="evenodd" clip-rule="evenodd" d="M73.2415 30.7717C74.3454 30.7717 75.29 30.3765 76.0713 29.5939C76.8526 28.8114 77.2451 27.87 77.2451 26.7658C77.2451 25.6617 76.8526 24.7242 76.0713 23.9533C75.29 23.1823 74.3454 22.7949 73.2415 22.7949C72.1376 22.7949 71.2086 23.1784 70.439 23.9494C69.6655 24.7203 69.2807 25.654 69.2807 26.7581V39.6898C69.2807 40.3484 69.0708 40.883 68.6549 41.2898C68.239 41.6927 67.6987 41.8981 67.0379 41.8981C66.3771 41.8981 65.8679 41.6889 65.452 41.2743C65.0322 40.8598 64.8223 40.329 64.8223 39.6937V26.762C64.8223 24.3872 65.6347 22.392 67.2516 20.7765C68.8725 19.161 70.8705 18.3513 73.2493 18.3513C75.6282 18.3513 77.6377 19.161 79.2664 20.7765C80.8989 22.392 81.7113 24.391 81.7113 26.7658C81.7113 29.1407 80.8989 31.1436 79.2664 32.7707C77.6377 34.3978 75.632 35.2114 73.2493 35.2114C72.5885 35.2114 72.056 35.0022 71.6478 34.5838C71.2436 34.1654 71.0376 33.6269 71.0376 32.9721C71.0376 32.3174 71.2436 31.7828 71.6478 31.376C72.056 30.9692 72.5924 30.7678 73.2493 30.7678L73.2415 30.7717Z" fill="white"/>
<path fill-rule="evenodd" clip-rule="evenodd" d="M53.7166 34.7774C53.7166 36.7765 53.0325 38.4617 51.6681 39.837C50.2999 41.2123 48.6168 41.898 46.6111 41.898C44.6054 41.898 42.8874 41.2162 41.5192 39.8564C40.1509 38.4966 39.4707 36.8036 39.4707 34.7813V34.452C39.4707 33.7934 39.6767 33.2627 40.081 32.8559C40.493 32.4491 41.0216 32.2477 41.6863 32.2477C42.351 32.2477 42.8874 32.4491 43.3072 32.8559C43.7231 33.2627 43.933 33.7934 43.933 34.452V34.7813C43.933 35.529 44.1934 36.1605 44.7104 36.6796C45.2274 37.1949 45.8609 37.4506 46.6111 37.4506C47.3613 37.4506 47.9871 37.191 48.4963 36.6796C49.0016 36.1605 49.2543 35.529 49.2543 34.7813V31.6201C48.4186 31.9687 47.5362 32.1469 46.6111 32.1469C44.5821 32.1469 42.8874 31.4651 41.5192 30.1014C40.1509 28.7377 39.4707 27.0448 39.4707 25.0147V20.5595C39.4707 19.9009 39.6767 19.3663 40.081 18.9595C40.493 18.5527 41.0216 18.3474 41.6863 18.3474C42.351 18.3474 42.8874 18.5489 43.3072 18.9595C43.7231 19.3663 43.933 19.9009 43.933 20.5595V25.0263C43.933 25.7702 44.1934 26.4094 44.7104 26.9247C45.2274 27.4438 45.8609 27.7033 46.6111 27.7033C47.3613 27.7033 47.9871 27.4477 48.4963 26.9285C49.0016 26.4094 49.2543 25.7818 49.2543 25.0341V20.5634C49.2543 19.9242 49.4681 19.3934 49.8995 18.975C50.3271 18.5566 50.8674 18.3474 51.5049 18.3474C52.1423 18.3474 52.6982 18.5489 53.1063 18.9556C53.5145 19.3624 53.7205 19.8932 53.7205 20.5556V34.7736L53.7166 34.7774Z" fill="white"/>
<path fill-rule="evenodd" clip-rule="evenodd" d="M23.0674 39.6898V34.2234C21.8119 34.8859 20.4786 35.2152 19.0676 35.2152C18.403 35.2152 17.8743 35.006 17.4662 34.5876C17.0581 34.1692 16.8559 33.6307 16.8559 32.976C16.8559 32.3212 17.0581 31.7866 17.4662 31.3798C17.8743 30.973 18.4068 30.7716 19.0676 30.7716C20.1715 30.7716 21.1122 30.3764 21.8935 29.5939C22.6748 28.8113 23.0674 27.8699 23.0674 26.7658C23.0674 25.6617 22.6748 24.728 21.8935 23.9532C21.1122 23.1822 20.1715 22.7948 19.0676 22.7948C17.9637 22.7948 17.0308 23.1784 16.2573 23.9493C15.4877 24.7203 15.099 25.6539 15.099 26.7542V39.6859C15.099 40.3445 14.8891 40.8791 14.4693 41.2859C14.0534 41.6888 13.5131 41.8941 12.8523 41.8941C12.1915 41.8941 11.6551 41.6888 11.247 41.2859C10.8427 40.8791 10.6367 40.3445 10.6367 39.6859V26.7542C10.6367 24.3793 11.4452 22.3842 13.0661 20.7687C14.6831 19.1532 16.681 18.3435 19.0638 18.3435C21.4465 18.3435 23.4522 19.1532 25.0808 20.7687C26.7095 22.3842 27.5258 24.3793 27.5258 26.7542V39.6859C27.5258 40.3445 27.3236 40.8791 26.9155 41.2859C26.5074 41.6888 25.971 41.8941 25.3102 41.8941C24.6494 41.8941 24.113 41.6888 23.6932 41.2859C23.2734 40.8791 23.0674 40.3445 23.0674 39.6859V39.6898Z" fill="white"/>
</svg>
