<svg width="119" height="39" viewBox="0 0 119 39" fill="none" xmlns="http://www.w3.org/2000/svg">
<g clip-path="url(#clip0_71_94)">
<g clip-path="url(#clip1_71_94)">
<path d="M112.046 31.1156V29.9758V25.7049V24.6106C110.561 25.401 108.986 25.7885 107.312 25.7885C106.532 25.7885 105.896 25.5378 105.419 25.0438C104.934 24.5423 104.7 23.9039 104.7 23.1212C104.7 22.3385 104.934 21.7001 105.419 21.2214C105.896 20.7426 106.532 20.4994 107.312 20.4994C108.615 20.4994 109.728 20.0283 110.652 19.1012C111.576 18.174 112.038 17.0493 112.038 15.7347C112.038 14.42 111.576 13.3105 110.652 12.391C109.728 11.4715 108.615 11.0155 107.312 11.0155C106.01 11.0155 104.904 11.4715 103.995 12.391C103.079 13.3105 102.625 14.42 102.625 15.7271V31.1232C102.625 31.906 102.375 32.5443 101.882 33.0307C101.382 33.5094 100.746 33.7526 99.9663 33.7526C99.1862 33.7526 98.5576 33.5094 98.0729 33.0307C97.5882 32.5443 97.3459 31.9136 97.3459 31.1308V15.7271C97.3459 12.9001 98.3001 10.5215 100.216 8.59892C102.132 6.67629 104.495 5.71118 107.305 5.71118C110.122 5.71118 112.493 6.66869 114.416 8.59892C116.34 10.5215 117.302 12.9001 117.302 15.7195V31.1156C117.302 31.8984 117.059 32.5367 116.582 33.0155C116.105 33.4942 115.469 33.7374 114.689 33.7374C113.909 33.7374 113.273 33.4942 112.773 33.0155C112.288 32.5367 112.046 31.906 112.046 31.1156Z" fill="#3B3C40"/>
<path d="M75.2166 20.4994C76.5192 20.4994 77.6325 20.0282 78.564 19.1011C79.488 18.174 79.95 17.0493 79.95 15.7346C79.95 14.42 79.488 13.3029 78.564 12.3909C77.6401 11.4714 76.5268 11.0155 75.2166 11.0155C73.914 11.0155 72.8083 11.4714 71.8994 12.3909C70.9831 13.3105 70.5287 14.42 70.5287 15.7346V31.1232C70.5287 31.9059 70.2787 32.5443 69.7865 33.0306C69.2942 33.5094 68.658 33.7526 67.8704 33.7526C67.1131 33.7526 66.4845 33.5018 65.9922 33.0078C65.4999 32.5139 65.25 31.8831 65.25 31.1232V15.727C65.25 12.9001 66.2118 10.5215 68.1203 8.59889C70.044 6.68386 72.4069 5.71875 75.2166 5.71875C78.0339 5.71875 80.4044 6.68386 82.328 8.60648C84.2592 10.5291 85.2211 12.9077 85.2211 15.7346C85.2211 18.5616 84.2592 20.9478 82.328 22.8856C80.4044 24.8234 78.0339 25.7885 75.2166 25.7885C74.4365 25.7885 73.8079 25.5377 73.3233 25.0438C72.8461 24.5422 72.6038 23.9039 72.6038 23.1211C72.6038 22.3384 72.8461 21.7001 73.3233 21.2213C73.8079 20.7426 74.4441 20.4994 75.2166 20.4994Z" fill="#3B3C40"/>
<path d="M52.14 25.2718C52.14 27.6503 51.3297 29.6565 49.7165 31.298C48.1034 32.9318 46.1116 33.7526 43.7411 33.7526C41.3403 33.7526 39.341 32.9394 37.7202 31.3208C36.1071 29.7021 35.2968 27.6883 35.2968 25.2794V24.8918C35.2968 24.1091 35.5391 23.4783 36.0162 22.992C36.5009 22.5056 37.1295 22.27 37.9172 22.27C38.6972 22.27 39.341 22.5056 39.8332 22.992C40.3255 23.4783 40.5754 24.1091 40.5754 24.8918V25.2794C40.5754 26.1685 40.8859 26.9208 41.4918 27.5363C42.1052 28.1519 42.855 28.4559 43.7411 28.4559C44.6196 28.4559 45.3694 28.1519 45.9677 27.5363C46.566 26.9208 46.8689 26.1685 46.8689 25.2794V21.5177C45.8768 21.9357 44.8392 22.1408 43.7411 22.1408C41.3403 22.1408 39.341 21.3277 37.7202 19.7091C36.1071 18.0828 35.2968 16.069 35.2968 13.6524V8.35571C35.2968 7.57298 35.5391 6.93464 36.0162 6.44828C36.5009 5.96193 37.1295 5.71875 37.9172 5.71875C38.6972 5.71875 39.341 5.96193 39.8332 6.44828C40.3255 6.93464 40.5754 7.56538 40.5754 8.35571V13.6676C40.5754 14.5567 40.8859 15.3091 41.4918 15.9246C42.1052 16.5402 42.855 16.8517 43.7411 16.8517C44.6196 16.8517 45.3694 16.5478 45.9677 15.9322C46.566 15.3167 46.8689 14.5643 46.8689 13.6828V8.36331C46.8689 7.60338 47.1188 6.97263 47.6263 6.47108C48.1261 5.96953 48.7623 5.71875 49.5196 5.71875C50.2997 5.71875 50.9358 5.96193 51.413 6.44068C51.8901 6.92704 52.14 7.55778 52.14 8.34811V25.2718Z" fill="#3B3C40"/>
<path d="M15.9014 31.1156V24.6106C14.417 25.4009 12.8417 25.7885 11.1756 25.7885C10.3879 25.7885 9.75935 25.5377 9.28223 25.0438C8.79753 24.5422 8.56276 23.9039 8.56276 23.1211C8.56276 22.3384 8.79753 21.7001 9.28223 21.2213C9.76693 20.7426 10.3955 20.4994 11.1756 20.4994C12.4782 20.4994 13.5915 20.0282 14.5155 19.1011C15.4394 18.174 15.9014 17.0493 15.9014 15.7346C15.9014 14.42 15.4394 13.3105 14.5155 12.3909C13.5915 11.4714 12.4782 11.0155 11.1756 11.0155C9.87296 11.0155 8.76724 11.4714 7.85843 12.3909C6.94962 13.3105 6.48765 14.42 6.48765 15.727V31.1232C6.48765 31.9059 6.23772 32.5443 5.74545 33.0306C5.25318 33.5094 4.60944 33.7526 3.82938 33.7526C3.04932 33.7526 2.41316 33.5094 1.93603 33.0306C1.45133 32.5367 1.20898 31.9059 1.20898 31.1232V15.727C1.20898 12.9001 2.16323 10.5291 4.0793 8.60648C5.99537 6.68386 8.35828 5.71875 11.1756 5.71875C13.9853 5.71875 16.3634 6.67626 18.287 8.60648C20.2106 10.5291 21.1725 12.9077 21.1725 15.727V31.1232C21.1725 31.9059 20.9301 32.5443 20.453 33.023C19.9683 33.5018 19.3397 33.745 18.5596 33.745C17.7796 33.745 17.1434 33.5018 16.6436 33.023C16.1437 32.5367 15.9014 31.9059 15.9014 31.1156Z" fill="#3B3C40"/>
</g>
</g>
<defs>
<clipPath id="clip0_71_94">
<rect width="116.108" height="28.0312" fill="white" transform="translate(1.20898 5.71875)"/>
</clipPath>
<clipPath id="clip1_71_94">
<rect width="116.108" height="28.0338" fill="white" transform="translate(1.20898 5.71875)"/>
</clipPath>
</defs>
</svg>
