<svg width="75" height="75" viewBox="0 0 75 75" fill="none" xmlns="http://www.w3.org/2000/svg">
<g clip-path="url(#clip0_11_13899)">
<path fill-rule="evenodd" clip-rule="evenodd" d="M22.35 46.9698C22.1625 47.2136 21.9188 47.4761 21.6 47.1573C21.4688 47.0261 21.4125 47.2136 21.3563 47.2886C21.1688 47.6073 21.1688 47.9823 21.3563 48.3573C21.7313 48.9198 22.1625 49.2948 22.8563 49.4261C24.1688 49.6136 25.425 49.6698 26.6625 49.1073C27.3563 48.7886 27.7875 48.2261 27.9188 47.4761C27.9188 47.3448 28.05 47.2323 28.05 47.1011C28.4813 46.1073 28.2938 45.0948 28.2938 44.1011C28.2938 43.2948 28.2375 42.5448 28.05 41.7198C27.9188 41.9636 27.8063 42.1511 27.675 42.3386C27.0563 43.3323 26.3063 44.0261 25.1063 44.2698C24.4125 44.4011 23.85 44.2698 23.2313 43.9511C22.6688 43.7073 22.6125 43.1448 22.5375 42.5823C22.4063 41.7011 22.2188 40.8386 22.1625 39.9011C22.1063 38.9073 22.2188 37.8386 22.5375 36.8448C22.725 36.3386 23.1 35.9636 23.4188 35.5323C23.475 35.4761 23.55 35.4011 23.6063 35.4011C23.7375 35.3448 23.85 35.2698 23.9813 35.4011C24.1125 35.5323 24.0375 35.6448 23.9813 35.7761C23.7938 36.1511 23.55 36.4698 23.4188 36.8448C23.2875 37.2761 23.2313 37.7823 23.175 38.2886C22.9875 39.6011 23.3063 40.9136 23.55 42.1698C23.6813 42.7886 24.3 43.3511 24.9938 43.4261C25.6875 43.5573 26.3625 43.2386 26.6813 42.6761C26.6813 42.6761 26.6813 42.6198 26.6813 42.5448C27.0563 42.1698 27.2438 41.6636 27.4875 41.2323C27.675 40.9886 27.8063 40.6698 27.8625 40.2948C28.05 39.3573 27.8625 38.4198 27.8063 37.4823C27.8063 37.1073 27.75 36.7323 27.6188 36.4136C27.4875 36.0386 27.675 35.7948 27.9938 35.6073C28.2375 35.4198 28.425 35.4761 28.5 35.7948C28.5563 36.1698 28.6313 36.5448 28.6875 36.9198C28.6875 37.1073 28.7438 37.2948 28.7438 37.4823C28.7438 37.5386 28.7438 37.5386 28.7438 37.6136C28.7438 38.0448 28.7438 38.4198 28.875 38.8698C28.9313 39.4323 28.9313 39.9948 28.875 40.6136C28.875 40.8011 28.875 41.0448 28.875 41.3073C29.0625 42.8073 29.1188 44.2511 29.0625 45.7511C29.0063 47.7573 27.9375 49.1261 26.1938 49.8198C24.45 50.5136 22.6313 50.3261 20.9438 49.5761C20.8125 49.5198 20.7 49.5198 20.625 49.3886C20.1938 48.7698 19.875 48.1323 20.1938 47.3823C20.325 47.0636 20.625 47.0073 20.8125 46.7636L20.8688 46.7073L20.925 46.6511C21.0563 46.5948 21.2438 46.5198 21.3563 46.4073C21.4125 46.4073 21.5438 46.3511 21.6 46.3511C22.35 46.1636 22.4813 46.3511 22.35 46.9698ZM3.91878 48.0386C3.48753 47.7198 3.16878 47.2886 2.92503 46.7823C2.92503 46.2198 2.60628 45.7886 2.60628 45.1511C2.23128 45.5261 2.04378 45.9573 1.91253 46.3323C1.78128 46.7073 1.78128 47.1386 1.72503 47.5886C1.66878 48.0198 1.53753 48.1511 1.16253 48.0948C1.03128 46.9136 1.40628 45.8448 2.15628 44.9073C2.34378 44.6636 2.34378 44.4761 2.21253 44.2136C2.02503 43.8386 1.83753 43.4073 1.65003 42.9573C1.51878 42.7698 1.51878 42.5261 1.51878 42.3386C1.51878 42.0198 1.51878 41.6448 1.51878 41.3448C1.51878 41.0261 1.51878 40.7261 1.46253 40.4636C1.46253 40.4073 1.46253 40.2761 1.40628 40.2198C1.16253 40.0323 1.21878 39.7886 1.40628 39.6011C2.02503 39.3573 2.15628 39.4136 2.21253 40.1073C2.21253 40.3511 2.21253 40.6136 2.21253 40.8573C2.08128 41.8511 2.40003 42.6761 2.96253 43.5386C3.15003 42.9761 3.58128 42.6011 3.71253 42.0386C3.90003 41.5323 4.14378 41.1011 4.46253 40.6698C4.70628 40.2386 5.02503 39.7886 5.26878 39.3573C5.32503 39.2261 5.45628 39.0386 5.58753 38.9823C5.71878 38.9261 5.90628 38.7386 6.01878 38.8511C6.20628 38.9823 6.01878 39.1698 5.96253 39.2823C4.96878 40.8386 4.21878 42.4698 3.28128 44.0261C3.22503 44.1573 3.15003 44.2698 3.22503 44.4573C3.41253 45.0761 3.54378 45.7136 3.73128 46.3323C3.86253 46.8386 4.16253 47.2136 4.61253 47.5136C4.74378 47.5698 4.93128 47.6448 4.80003 47.8886C4.66878 48.0761 4.48128 48.2073 4.29378 48.1323C4.16253 48.1511 4.05003 48.0948 3.91878 48.0386ZM18.3563 39.2261C18.6 38.4198 18.675 37.5948 18.675 36.7323C18.675 36.4886 18.675 36.1698 18.8625 35.9261C18.9938 35.7386 19.1063 35.6823 19.2938 35.6823C19.5375 35.6823 19.4813 35.8698 19.5375 36.0573C19.5938 36.1886 19.5938 36.3011 19.5938 36.4323C19.4625 37.6886 19.5375 38.9261 19.35 40.1823C19.2188 40.9886 19.2188 41.8136 19.0313 42.6198C18.6 44.2511 18.7125 45.8636 18.2813 47.4948C18.225 47.6823 18.15 47.8136 18.0375 47.8698C17.85 48.0011 17.6625 48.1136 17.475 48.0011C17.2875 47.8698 17.4188 47.6823 17.4188 47.4948C17.475 47.3073 17.475 47.1761 17.475 46.9886C17.475 45.9198 17.6625 44.9261 17.9813 43.9323C18.225 43.1261 18.225 42.3011 18.3563 41.4948C18.4125 41.1761 18.3563 40.9323 18.3563 40.6136C18.1688 40.6136 18.1125 40.7448 18.0375 40.8573C17.7188 41.1761 17.4188 41.4761 17.0438 41.7386C15.975 42.3573 14.475 41.8698 14.3625 40.3698C14.3063 39.8073 14.3625 39.2448 14.3625 38.6823C14.4188 38.1198 14.4188 37.5573 14.4188 36.9948C14.4188 36.6761 14.4188 36.3761 14.6063 36.1136C14.7375 35.8698 14.925 35.6823 15.1688 35.7948C15.4125 35.8511 15.3 36.1136 15.3563 36.3011C15.3563 37.2948 15.1688 38.3636 15.1688 39.3573C15.1688 39.6761 15.225 39.9198 15.225 40.2386C15.225 40.7448 15.5438 41.0448 15.9188 41.1761C16.35 41.3073 16.8563 41.4198 17.2875 40.9886C17.475 40.8011 17.6063 40.6136 17.7188 40.4261C17.85 40.1073 18.0375 39.8636 18.15 39.5448C18.15 39.5448 18.15 39.4886 18.2063 39.4886C18.3563 39.3386 18.3563 39.2823 18.3563 39.2261ZM7.23753 43.2198C7.23753 42.9761 7.23753 42.6573 7.29378 42.4136C7.42503 42.2261 7.42503 41.9823 7.42503 41.7198C7.55628 40.5948 7.74378 39.4136 8.49378 38.4761L8.55003 38.4198C8.60628 38.3636 8.68128 38.2886 8.68128 38.1761C8.73753 37.9886 8.92503 37.9323 9.05628 37.8011C9.43128 37.6698 9.80628 37.4823 10.1813 37.6136C11.175 37.9323 12.0563 38.3636 12.4875 39.3573C12.8625 40.1636 13.1813 41.0448 13.425 41.9261C13.5563 42.4323 13.6688 42.9198 13.9313 43.3698C13.9313 43.4261 13.9313 43.5011 13.9875 43.5011C13.9875 43.5011 13.9875 43.5573 14.0438 43.5573C14.175 44.2511 14.3625 45.0011 14.4188 45.6761C14.55 46.2948 14.55 46.9886 14.2313 47.6073C13.9875 48.1136 13.6125 48.6011 13.05 48.9198C12.1125 49.4823 11.1188 49.5386 10.1063 49.1636C9.41253 48.9198 8.85003 48.4136 8.36253 47.8511C7.85628 47.2323 7.36878 46.5948 7.05003 45.8448C6.99378 45.6573 6.99378 45.4698 6.99378 45.2823C6.93753 44.6636 6.99378 44.0261 7.12503 43.4636C7.16253 43.2761 7.23753 43.2761 7.23753 43.2198ZM11.1 39.2823C10.9125 38.9073 10.5938 38.6636 10.2188 38.4761C9.46878 38.1011 9.09378 38.2323 8.71878 38.9823C8.47503 39.5448 8.28753 40.1073 8.21253 40.6698C8.02503 41.7386 7.96878 42.8636 7.78128 43.9136C7.65003 44.6636 7.72503 45.4136 8.15628 46.1073C8.58753 46.8011 9.09378 47.3636 9.78753 47.8511C10.4063 48.2823 11.1 48.5448 11.85 48.5448C12.6563 48.6011 13.1063 48.3011 13.2938 47.6073C13.4813 46.7261 13.4813 45.8636 13.35 44.9823C13.2188 43.8011 12.6563 42.7886 12.225 41.7386C11.9063 40.9323 11.6063 40.1073 11.1563 39.3573C11.175 39.4136 11.1 39.3386 11.1 39.2823Z" fill="#462F10"/>
<path fill-rule="evenodd" clip-rule="evenodd" d="M46.743 47.5477C47.1742 47.3602 47.3055 46.929 47.3617 46.554C47.493 45.7477 47.6805 44.9977 47.6805 44.1727C47.6805 43.2915 48.1117 42.5415 48.243 41.7352C48.4305 40.7415 48.6742 39.804 49.1242 38.8665C49.368 38.3602 49.368 37.8727 49.368 37.3665C49.4992 35.9977 50.1742 35.1165 51.993 35.5477C53.118 35.7915 54.243 36.1665 55.1805 36.8602C55.368 36.9915 55.4992 37.104 55.4992 37.3665C55.4992 37.629 55.4992 37.8727 55.443 38.1165C55.068 39.7477 54.6367 41.3602 54.1305 42.9915C53.8117 44.0602 53.568 45.1852 53.2492 46.2352C53.193 46.4227 53.2492 46.6665 53.2492 46.854C53.2492 46.9852 53.2492 47.1727 53.2492 47.2852C53.193 47.529 52.743 47.8477 52.5555 47.7915C52.2367 47.6602 52.3117 47.4165 52.3117 47.1727C52.443 46.0477 52.8742 44.979 53.0617 43.854C53.3805 42.1665 53.868 40.479 54.3742 38.8477C54.4305 38.529 54.4305 38.2852 54.4305 37.9665C54.4305 37.779 54.243 37.8352 54.1867 37.779C53.6805 37.5915 53.193 37.2727 52.743 37.029C52.1805 36.654 51.5617 36.3352 50.868 36.2227C50.6805 36.1665 50.493 36.279 50.3617 36.4102C50.043 36.7852 50.118 37.1602 50.043 37.5915C50.043 37.6477 50.043 37.6477 50.043 37.7227V37.779C49.9117 38.2852 49.7992 38.7165 49.668 39.2227C49.5367 39.654 49.3492 40.029 49.2367 40.479C48.7305 42.2227 48.3555 44.0415 48.168 45.9165C48.1117 46.6665 47.9242 47.3602 47.2305 47.7915C47.043 47.9227 46.8555 48.0352 46.668 47.7915V47.7352C46.6867 47.604 46.6867 47.5477 46.743 47.5477ZM68.8117 41.1727C68.493 42.354 68.193 43.7415 66.8055 44.4165C65.9992 44.8477 65.118 44.8477 64.2367 44.4165C63.993 44.2852 64.0492 44.4727 63.993 44.604C63.243 46.0477 62.6805 47.5477 62.2492 49.104C62.193 49.4227 62.0617 49.6665 61.743 49.7977C61.6117 49.854 61.4992 49.929 61.368 49.7977C61.2367 49.7415 61.3117 49.554 61.368 49.479C61.9305 47.4727 62.7367 45.5977 63.6742 43.7977C64.2367 42.729 64.743 41.604 65.2305 40.479C65.6617 39.4852 66.4117 39.1102 67.4242 38.979C67.668 38.979 67.8555 39.0352 68.043 39.1665C68.5492 39.729 68.8117 40.3665 68.8117 41.1727ZM66.243 40.4227L66.1867 40.479C65.8117 41.229 65.568 41.979 65.193 42.729C65.193 42.729 65.193 42.7852 65.1367 42.7852C65.1367 42.8415 65.1367 42.9165 65.1367 42.9165C64.7617 43.5352 64.7617 43.6102 65.3805 43.9852C65.8117 44.229 66.5617 43.9852 66.9367 43.554C67.368 43.2352 67.5555 42.804 67.743 42.3727C67.9867 41.5665 67.8742 40.8165 67.4242 40.179C66.993 39.729 66.4867 39.804 66.243 40.4227ZM71.118 48.1102C71.118 48.054 71.118 48.054 71.118 47.979C71.1742 48.054 71.118 48.1102 71.118 48.1102ZM70.0492 41.979C70.1055 41.5477 70.0492 41.0977 70.4805 40.854C70.9117 40.7227 71.043 40.7227 70.9867 41.0415C70.9305 41.4727 70.8555 41.9227 70.743 42.354C70.0492 44.0977 69.1867 45.8602 68.493 47.604C68.3055 48.1102 68.1742 48.6727 68.118 49.2352C68.118 49.3665 68.0617 49.479 68.1742 49.554C68.3055 49.6102 68.3617 49.4977 68.493 49.4227C69.1117 49.0477 69.618 48.4852 70.0492 47.8665C70.2367 47.6227 70.368 47.4352 70.5555 47.1727C70.9867 46.929 71.1742 46.479 71.4367 46.104C71.7555 45.5977 71.9992 45.1102 72.4305 44.6602C72.9367 44.154 73.368 43.5915 73.743 43.029C73.8742 42.8415 74.0617 42.654 74.3055 42.7852C74.4367 42.8415 74.493 42.9165 74.4367 43.029C73.9305 44.0227 73.6305 45.0915 73.1242 46.029C72.243 47.6602 71.4367 49.2727 70.8742 51.0352C70.818 51.279 70.6305 51.4665 70.368 51.5977C70.1805 51.654 69.993 51.5977 70.1242 51.354C70.3117 50.7915 70.443 50.2852 70.6305 49.7227C70.9492 49.029 71.2492 48.354 71.568 47.7165C71.6992 47.3977 71.8867 47.0977 71.9992 46.6477C71.868 46.779 71.8117 46.8352 71.7555 46.8915C70.818 48.1477 69.7492 49.1977 68.5117 50.079C68.193 50.2665 67.893 50.2665 67.6305 50.1352C67.3867 50.004 67.443 49.704 67.443 49.4415C67.443 48.5602 67.818 47.754 68.193 47.004C68.943 45.4477 69.4492 43.7602 70.1242 42.129C70.0492 42.1102 70.1242 42.054 70.0492 41.979ZM58.6117 37.554C58.668 37.7415 58.6117 37.8727 58.5555 38.0602C58.1805 39.1852 57.993 40.4415 57.8617 41.6227C57.8617 41.8102 57.8617 41.9977 57.8617 42.1852C57.993 43.254 58.8555 43.8165 59.9242 43.554C60.1117 43.4977 60.168 43.4227 60.243 43.3102C60.4867 42.6165 60.7492 41.9977 60.8617 41.2477C60.918 40.7415 61.1805 40.254 61.293 39.7477C61.3492 39.6165 61.4805 39.5602 61.6117 39.504C61.743 39.4477 61.7992 39.4477 61.9305 39.504C62.0617 39.5602 61.9867 39.6915 61.9305 39.8227C61.7992 40.5165 61.4242 41.1352 61.6117 41.8852C61.668 42.0165 61.5555 42.204 61.4805 42.3165C61.293 42.879 61.1617 43.3852 60.918 43.9477C60.4117 45.0165 60.1117 46.1415 59.2867 47.079C58.968 47.5102 58.8555 48.0165 58.4805 48.4477C57.918 49.1415 56.5492 49.629 55.7242 49.329C54.7305 49.0102 54.3555 47.6415 54.918 46.704C55.1055 46.5165 55.293 46.329 55.5367 46.1977C55.593 46.1977 55.668 46.1977 55.7242 46.1977C55.8555 46.1977 55.9117 46.1415 55.968 46.254C56.0242 46.3852 55.968 46.4415 55.9117 46.5727C55.8555 46.629 55.7805 46.704 55.7242 46.704C55.293 46.8915 55.293 47.2102 55.4805 47.5102C55.5367 47.6415 55.5367 47.6977 55.6117 47.829C55.9867 48.7102 56.043 48.7102 57.0555 48.6352C57.8055 48.579 58.1242 48.204 58.3117 47.5665C58.743 46.7602 59.2492 45.9352 59.568 45.0727C59.6992 44.829 59.8117 44.6415 59.8867 44.3227C59.4555 44.379 59.0055 44.454 58.5742 44.454C57.768 44.454 57.318 44.079 57.1305 43.2727C57.0742 42.954 57.0742 42.7102 57.0742 42.3915C57.0742 41.5852 57.2617 40.8352 57.393 40.0852C57.4492 39.5227 57.7117 38.9602 57.7117 38.3977C57.7492 37.7415 57.993 37.554 58.6117 37.554Z" fill="#462F10"/>
<path fill-rule="evenodd" clip-rule="evenodd" d="M35.6055 50.6219C35.6055 50.6219 35.193 48.7469 34.6867 48.2219C34.1992 47.6969 33.9555 46.1406 32.5492 44.1531C31.143 42.1656 30.1492 41.2469 30.0367 40.1594C29.9242 39.0719 30.543 38.7344 31.293 38.2281C32.043 37.7219 33.468 37.0281 33.468 37.0281L35.4555 35.6781L35.343 36.4656L37.3117 35.3219L37.4617 36.1469L39.2992 34.7594V35.6969L40.1992 34.9656L40.668 35.0594L41.643 34.0469L42.8617 35.5094L43.0492 34.1781L45.1305 34.7969C45.618 34.9656 45.993 35.1344 46.2367 35.2469C46.7055 35.4906 46.8555 36.0156 46.4992 36.9156C46.143 37.8156 45.468 39.5219 45.393 40.3656C45.2992 41.2094 45.018 42.2969 45.018 42.2969C45.018 42.2969 44.5492 43.6469 44.3992 44.6031C44.2492 45.5781 43.293 49.0656 43.293 49.0656C43.293 49.0656 43.2367 49.7406 42.8805 49.7406C42.5242 49.7406 41.043 49.9844 39.8617 50.0969C38.6805 50.2094 37.8367 50.4906 37.0867 50.6031C36.3555 50.7156 35.6617 50.9594 35.6055 50.6219Z" fill="#847968"/>
<path fill-rule="evenodd" clip-rule="evenodd" d="M35.6055 50.6242C35.6055 50.6242 35.193 48.7492 34.6867 48.2242C34.1992 47.6992 33.9555 46.143 32.5492 44.1555C31.143 42.168 30.1492 41.2492 30.0367 40.1617C29.9242 39.0742 30.543 38.7367 31.293 38.2305C32.043 37.7242 33.468 37.0305 33.468 37.0305L33.6555 36.918C33.6555 36.918 33.1492 37.8555 34.143 38.793C35.1367 39.7305 36.9555 39.2242 36.9555 39.2242C36.9555 39.2242 38.3992 40.4055 40.1992 39.9367C40.3117 39.918 40.4242 39.8805 40.518 39.843C40.518 39.843 39.918 40.818 39.5055 41.3242C39.093 41.8305 41.793 42.8805 41.793 42.8805L43.518 43.3117C43.518 43.3117 43.4617 43.6867 43.1617 44.2867C42.8617 44.868 42.918 45.8055 42.3367 46.1805C41.7555 46.5555 39.618 47.793 39.3742 48.1117C39.1305 48.4305 38.8492 48.3742 38.6617 48.1492C38.493 47.9055 38.5492 47.9055 38.1742 48.2055C37.7992 48.5055 37.0867 48.243 37.0867 48.4117C37.0867 48.5805 37.143 48.9367 37.3305 49.443C37.4055 49.668 37.5367 50.0992 37.6492 50.493C37.443 50.5305 37.2367 50.5867 37.0492 50.6055C36.3742 50.718 35.6805 50.9617 35.6055 50.6242Z" fill="#544937"/>
<path d="M35.6055 50.6219C35.6055 50.6219 35.193 48.7469 34.6867 48.2219C34.1992 47.6969 33.9555 46.1406 32.5492 44.1531C31.143 42.1656 30.1492 41.2469 30.0367 40.1594C29.9242 39.0719 30.543 38.7344 31.293 38.2281C32.043 37.7219 33.468 37.0281 33.468 37.0281C34.1242 36.5781 34.7992 36.1281 35.4555 35.6781C35.418 35.9406 35.3805 36.2031 35.343 36.4656C35.9992 36.0906 36.6555 35.6969 37.3117 35.3219C37.368 35.6031 37.4055 35.8656 37.4617 36.1469C38.0805 35.6969 38.6992 35.2281 39.2992 34.7594C39.2992 35.0781 39.2992 35.3781 39.2992 35.6969C39.5992 35.4531 39.8992 35.2094 40.1992 34.9656C40.3492 34.9844 40.518 35.0219 40.668 35.0594C40.9867 34.7219 41.3055 34.3844 41.643 34.0469C42.0555 34.5344 42.468 35.0219 42.8617 35.5094C42.9367 35.0594 42.993 34.6281 43.0492 34.1781C43.743 34.3844 44.4367 34.5906 45.1305 34.7969C45.618 34.9656 45.993 35.1344 46.2367 35.2469C46.7055 35.4906 46.8555 36.0156 46.4992 36.9156C46.143 37.8156 45.468 39.5219 45.393 40.3656C45.2992 41.2094 45.018 42.2969 45.018 42.2969C45.018 42.2969 44.5492 43.6469 44.3992 44.6031C44.2492 45.5781 43.293 49.0656 43.293 49.0656C43.293 49.0656 43.2367 49.7406 42.8805 49.7406C42.5242 49.7406 41.043 49.9844 39.8617 50.0969C38.6805 50.2094 37.8367 50.4906 37.0867 50.6031C36.3555 50.7156 35.6617 50.9594 35.6055 50.6219Z" stroke="#2B1C16" stroke-width="2" stroke-miterlimit="22.9256" stroke-linecap="round" stroke-linejoin="round"/>
<path fill-rule="evenodd" clip-rule="evenodd" d="M35.457 35.6814L33.4695 37.0314L33.2632 35.9439L31.7445 36.7876L32.4757 35.7001L30.957 35.9626L31.632 34.7626L30.1132 34.9689C30.1132 34.9689 30.957 33.8251 30.9382 33.6564C30.9195 33.4876 29.8507 33.2064 29.8507 33.2064L30.357 32.3064C30.357 32.3064 29.5695 31.5751 29.5882 31.3689C29.607 31.1626 31.0132 30.6564 31.0132 30.6564L30.1132 29.5126L31.482 29.3064L30.6382 28.4251L32.1945 28.4814C32.1945 28.4814 31.3507 27.2814 31.4632 27.0376C31.5757 26.7939 33.1132 27.6564 33.1132 27.6564C33.1132 27.6564 33.0195 26.5126 33.2632 26.4751C33.507 26.4376 34.557 27.1876 34.557 27.1876C34.557 27.1876 34.5007 25.9314 34.7257 25.8376C34.9507 25.7439 35.6632 26.4189 35.8695 26.4001C36.0757 26.3814 35.6632 25.0876 35.8695 25.0501C36.0757 25.0314 37.2757 26.1939 37.2757 26.1939C37.2757 26.1939 37.5945 24.8064 37.8382 24.8064C38.082 24.8064 38.5507 25.6314 38.5507 25.6314C38.5507 25.6314 38.9257 24.5814 39.132 24.5439C39.3382 24.5064 39.6195 25.6314 39.6195 25.6314C39.6195 25.6314 40.4445 24.9189 40.6507 24.9564C40.857 24.9751 41.007 25.9876 41.007 25.9876C41.007 25.9876 42.3195 25.2564 42.5257 25.3501C42.732 25.4439 42.357 26.4939 42.357 26.4939L43.2945 26.0814L43.3132 26.9064L44.5507 26.7001V27.4689C44.5507 27.4689 45.4695 27.7126 45.4695 27.8814C45.4695 28.0501 44.4382 28.9126 44.4382 28.9126C44.4382 28.9126 45.432 29.3626 45.4132 29.5876C45.3757 29.8314 44.682 30.4314 44.682 30.4314L46.0882 30.8064L45.2445 31.7064L46.0695 32.1751L45.132 32.8126C45.132 32.8126 46.782 33.6001 46.6882 33.8064C46.5945 34.0126 45.282 33.9751 45.282 33.9751L45.207 34.7439L43.1257 34.1251L42.9382 35.4564L41.7195 33.9939L40.6882 35.0626L40.2195 34.9689L39.3195 35.7001V34.7626L37.482 36.1501L37.332 35.3251L35.3632 36.4689L35.457 35.6814Z" fill="#544937"/>
<path fill-rule="evenodd" clip-rule="evenodd" d="M33.2434 26.5103C33.4871 26.4728 34.5371 27.2228 34.5371 27.2228C34.5371 27.2228 34.4809 25.9665 34.7059 25.8728C34.9309 25.779 35.6434 26.454 35.8496 26.4353C36.0559 26.4165 35.6434 25.1228 35.8496 25.0853C36.0559 25.0665 37.2559 26.229 37.2559 26.229C37.2559 26.229 37.5746 24.8415 37.8184 24.8415C38.0621 24.8415 38.5309 25.6665 38.5309 25.6665C38.5309 25.6665 38.9059 24.6165 39.1121 24.579C39.3184 24.5415 39.5996 25.6665 39.5996 25.6665C39.5996 25.6665 40.4246 24.954 40.6309 24.9915C40.8371 25.0103 40.9871 26.0228 40.9871 26.0228C40.9871 26.0228 42.2996 25.2915 42.5059 25.3853C42.7121 25.479 42.3371 26.529 42.3371 26.529L43.2746 26.1165L43.2934 26.9415L44.5309 26.7353V27.504C44.5309 27.504 45.4496 27.7478 45.4496 27.9165C45.4496 28.0853 44.4184 28.9478 44.4184 28.9478C44.4184 28.9478 45.4121 29.3978 45.3934 29.6228C45.3559 29.8665 44.6621 30.4665 44.6621 30.4665L46.0684 30.8415L45.2246 31.7415L46.0496 32.2103L45.1121 32.8478C45.1121 32.8478 46.7621 33.6353 46.6684 33.8415C46.5746 34.0478 45.2621 34.0103 45.2621 34.0103L45.1871 34.779L43.1059 34.1603L42.9184 35.4915L41.9996 34.404L42.4309 33.2978L40.2559 33.804L40.4059 33.1853C40.4059 33.1853 39.3559 33.654 38.1559 33.8228C36.9559 33.9915 36.1121 33.9165 36.1121 33.9165L35.0809 34.6853L35.1371 33.954L34.3684 34.0103L34.7996 32.9603L33.3934 33.2603L33.8996 32.229L33.2809 31.9853L33.7496 31.0103H32.9621L33.1309 29.9228L32.7559 29.4915L34.0121 27.7103L33.2434 26.5103Z" fill="#847968"/>
<path fill-rule="evenodd" clip-rule="evenodd" d="M33.6563 36.8969C33.6563 36.8969 33.15 37.8344 34.1438 38.7719C35.1375 39.7094 36.9563 39.2031 36.9563 39.2031C36.9563 39.2031 38.4 40.3844 40.2 39.9156C42.0188 39.4469 42.4313 37.6094 42.6 37.2531C42.825 36.8031 43.5 36.3344 43.5 35.8844C43.5 35.5656 43.2 35.3969 42.9 35.1906L42.8438 35.5094L42.225 34.7781L41.6063 34.0469L40.6875 35.0594L40.2188 34.9656L39.3188 35.6969V34.7594L37.4813 36.1469L37.3313 35.3219L35.3625 36.4656L35.475 35.6781L33.6563 36.8969Z" fill="#E7D6BD" stroke="#2B1C16" stroke-width="2" stroke-miterlimit="22.9256" stroke-linecap="round" stroke-linejoin="round"/>
<path fill-rule="evenodd" clip-rule="evenodd" d="M33.6191 29.2477C33.6191 29.2477 34.2566 28.6289 34.9691 28.1414C35.6816 27.6539 36.4879 27.4102 36.4879 27.4102C36.4879 27.4102 35.1566 28.9477 33.6191 29.2477Z" fill="#D4D1CB"/>
<path fill-rule="evenodd" clip-rule="evenodd" d="M37.4062 28.0508C37.4062 28.0508 37.725 27.507 38.0437 27.2258C38.3625 26.9445 38.9812 26.832 38.9812 26.832C38.9812 26.832 38.3063 27.7883 37.4062 28.0508Z" fill="#D4D1CB"/>
<path fill-rule="evenodd" clip-rule="evenodd" d="M33.6562 31.3867C33.6562 31.3867 34.2938 30.6367 35.3063 29.9617C36.3 29.2867 36.825 29.1367 36.825 29.1367C36.825 29.1367 35.25 30.8805 33.6562 31.3867Z" fill="#D4D1CB"/>
<path fill-rule="evenodd" clip-rule="evenodd" d="M33.8633 32.2102C33.8633 32.2102 35.1945 31.2164 36.3758 30.4102C37.557 29.6039 38.6633 29.2852 38.6633 29.2852C38.6633 29.2852 36.0008 31.7039 33.8633 32.2102Z" fill="#D4D1CB"/>
<path fill-rule="evenodd" clip-rule="evenodd" d="M36.4688 32.3234C36.4688 32.3234 36.7875 31.5547 37.95 30.8422C39.1125 30.1297 39.8625 29.8672 39.8625 29.8672C39.8625 29.8672 37.6125 32.0422 36.4688 32.3234Z" fill="#D4D1CB"/>
<path fill-rule="evenodd" clip-rule="evenodd" d="M37.7617 32.8281C37.7617 32.8281 38.1742 32.2844 39.2992 31.5531C40.4242 30.8219 41.0992 30.6719 41.0992 30.6719C41.0992 30.6719 39.018 32.5281 37.7617 32.8281Z" fill="#D4D1CB"/>
<path fill-rule="evenodd" clip-rule="evenodd" d="M34.9882 42.8648L35.3069 43.6523C35.3069 43.6523 35.5694 43.2398 36.1507 43.2398C36.7319 43.2398 36.8819 43.2773 36.8819 43.2773C36.8819 43.2773 37.1444 43.7648 37.4444 43.6523C37.7444 43.5398 37.6507 42.3398 37.6507 42.3398C37.6507 42.3398 38.5319 42.4898 38.6444 42.1335C38.7569 41.7773 38.4757 41.2523 38.4757 41.2523C38.4757 41.2523 39.6569 40.9335 40.4069 41.1398C41.1757 41.346 41.7569 42.2273 42.8444 41.9835C43.9319 41.7398 45.3944 41.0273 45.9194 41.2148C46.4444 41.4023 46.5569 41.8335 46.5944 42.096C46.6319 42.3585 46.2194 43.146 45.9194 43.0523C45.6194 42.9585 45.3194 42.5648 44.8694 42.7148C44.4194 42.8648 43.6694 43.446 43.2194 43.6898C42.7694 43.9335 42.4882 44.4023 42.1319 44.9835C41.7757 45.5648 40.7632 46.7085 39.0569 46.6523C37.3507 46.596 36.6194 46.3523 36.0944 46.3523C35.5694 46.3523 34.6319 45.6398 34.0132 46.0335C33.3944 46.4273 31.8194 47.5523 31.4257 46.7648C31.0319 45.9773 31.2569 45.7335 32.6257 45.2648C34.0319 44.8335 34.2569 43.3148 34.9882 42.8648Z" fill="#D0AE7C"/>
<path fill-rule="evenodd" clip-rule="evenodd" d="M33.4891 46.4057C33.4891 46.4057 33.3953 47.2494 33.8266 47.3244C34.2578 47.3994 34.3891 47.2682 34.7828 47.4182C35.1953 47.5682 35.5891 46.6494 35.4391 46.2182C34.9703 46.0494 34.4266 45.8244 34.0141 46.0682C33.8828 46.1432 33.6953 46.2744 33.4891 46.4057Z" fill="#EEDDC4"/>
<path fill-rule="evenodd" clip-rule="evenodd" d="M43.7617 43.388C43.7617 43.388 43.668 44.3255 44.7742 44.2505C45.8805 44.1567 45.6367 43.2755 45.5992 42.9192C45.393 42.788 45.1492 42.6567 44.868 42.7505C44.568 42.8442 44.1367 43.1442 43.7617 43.388Z" fill="#EEDDC4"/>
<path fill-rule="evenodd" clip-rule="evenodd" d="M38.3613 49.6133C38.7926 49.6133 38.9238 50.232 38.7926 50.6633C38.6801 51.1133 38.3238 51.3383 37.7988 51.1133C37.2738 50.8883 37.5363 49.9508 38.3613 49.6133Z" fill="#E6E3DF"/>
<path fill-rule="evenodd" clip-rule="evenodd" d="M41.7567 49.3499C42.1129 49.3499 42.6379 49.7999 42.5817 50.2874C42.5254 50.7937 42.1317 50.7187 41.5317 50.7562C40.9317 50.7937 40.8004 50.3249 40.8379 49.9874C40.8754 49.6312 41.2879 49.1437 41.7567 49.3499Z" fill="#E6E3DF"/>
<path d="M35.457 35.6814C34.8007 36.1314 34.1257 36.5814 33.4695 37.0314C33.3945 36.6751 33.3382 36.3001 33.2632 35.9439C32.757 36.2251 32.2507 36.5064 31.7445 36.7876C31.9882 36.4314 32.232 36.0564 32.4757 35.7001C31.9695 35.7939 31.4632 35.8689 30.957 35.9626C31.182 35.5689 31.407 35.1564 31.632 34.7626C31.1257 34.8376 30.6195 34.8939 30.1132 34.9689C30.1132 34.9689 30.957 33.8251 30.9382 33.6564C30.9195 33.4876 29.8507 33.2064 29.8507 33.2064C30.0195 32.9064 30.1882 32.6064 30.357 32.3064C30.357 32.3064 29.5695 31.5751 29.5882 31.3689C29.607 31.1626 31.0132 30.6564 31.0132 30.6564C30.7132 30.2814 30.4132 29.8876 30.1132 29.5126C30.5632 29.4376 31.032 29.3814 31.482 29.3064C31.2007 29.0064 30.9195 28.7251 30.6382 28.4251C31.1632 28.4439 31.6695 28.4626 32.1945 28.4814C32.1945 28.4814 31.3507 27.2814 31.4632 27.0376C31.5757 26.7939 33.1132 27.6564 33.1132 27.6564C33.1132 27.6564 33.0195 26.5126 33.2632 26.4751C33.507 26.4376 34.557 27.1876 34.557 27.1876C34.557 27.1876 34.5007 25.9314 34.7257 25.8376C34.9507 25.7439 35.6632 26.4189 35.8695 26.4001C36.0757 26.3814 35.6632 25.0876 35.8695 25.0501C36.0757 25.0314 37.2757 26.1939 37.2757 26.1939C37.2757 26.1939 37.5945 24.8064 37.8382 24.8064C38.082 24.8064 38.5507 25.6314 38.5507 25.6314C38.5507 25.6314 38.9257 24.5814 39.132 24.5439C39.3382 24.5064 39.6195 25.6314 39.6195 25.6314C39.6195 25.6314 40.4445 24.9189 40.6507 24.9564C40.857 24.9751 41.007 25.9876 41.007 25.9876C41.007 25.9876 42.3195 25.2564 42.5257 25.3501C42.732 25.4439 42.357 26.4939 42.357 26.4939C42.6757 26.3626 42.9757 26.2126 43.2945 26.0814C43.3132 26.3626 43.3132 26.6251 43.3132 26.9064C43.7257 26.8314 44.1382 26.7751 44.5507 26.7001C44.5507 26.9626 44.5507 27.2064 44.5507 27.4689C44.5507 27.4689 45.4695 27.7126 45.4695 27.8814C45.4695 28.0501 44.4382 28.9126 44.4382 28.9126C44.4382 28.9126 45.432 29.3626 45.4132 29.5876C45.3757 29.8314 44.682 30.4314 44.682 30.4314C45.1507 30.5626 45.6195 30.6939 46.0882 30.8064C45.807 31.1064 45.5257 31.4064 45.2445 31.7064C45.5257 31.8564 45.7882 32.0251 46.0695 32.1751C45.7507 32.3814 45.4507 32.6064 45.132 32.8126C45.132 32.8126 46.782 33.6001 46.6882 33.8064C46.5945 34.0126 45.282 33.9751 45.282 33.9751C45.2632 34.2376 45.2257 34.5001 45.207 34.7439C44.5132 34.5376 43.8195 34.3314 43.1257 34.1251C43.0695 34.5751 42.9945 35.0064 42.9382 35.4564C42.5257 34.9689 42.1132 34.4814 41.7195 33.9939C41.4007 34.3314 41.082 34.6689 40.7445 35.0064C40.5945 34.9689 40.4257 34.9501 40.2757 34.9126C39.9757 35.1564 39.6757 35.4001 39.3757 35.6439C39.3757 35.3251 39.3757 35.0251 39.3757 34.7064C38.757 35.1564 38.1382 35.6251 37.5382 36.0939C37.482 35.8126 37.4445 35.5501 37.3882 35.2689C36.732 35.6439 36.0757 36.0376 35.4195 36.4126C35.382 36.2064 35.4195 35.9439 35.457 35.6814Z" stroke="#2B1C16" stroke-width="2" stroke-miterlimit="22.9256" stroke-linejoin="round"/>
<path d="M34.9882 42.8648L35.3069 43.6523C35.3069 43.6523 35.5694 43.2398 36.1507 43.2398C36.7319 43.2398 36.8819 43.2773 36.8819 43.2773C36.8819 43.2773 37.1444 43.7648 37.4444 43.6523C37.7444 43.5398 37.6507 42.3398 37.6507 42.3398C37.6507 42.3398 38.5319 42.4898 38.6444 42.1335C38.7569 41.7773 38.4757 41.2523 38.4757 41.2523C38.4757 41.2523 39.6569 40.9335 40.4069 41.1398C41.1757 41.346 41.7569 42.2273 42.8444 41.9835C43.9319 41.7398 45.3944 41.0273 45.9194 41.2148C46.4444 41.4023 46.5569 41.8335 46.5944 42.096C46.6319 42.3585 46.2194 43.146 45.9194 43.0523C45.6194 42.9585 45.3194 42.5648 44.8694 42.7148C44.4194 42.8648 43.6694 43.446 43.2194 43.6898C42.7694 43.9335 42.4882 44.4023 42.1319 44.9835C41.7757 45.5648 40.7632 46.7085 39.0569 46.6523C37.3507 46.596 36.6194 46.3523 36.0944 46.3523C35.5694 46.3523 34.6319 45.6398 34.0132 46.0335C33.3944 46.4273 31.8194 47.5523 31.4257 46.7648C31.0319 45.9773 31.2569 45.7335 32.6257 45.2648C34.0319 44.8335 34.2569 43.3148 34.9882 42.8648Z" stroke="#2B1C16" stroke-width="2" stroke-miterlimit="22.9256" stroke-linecap="round" stroke-linejoin="round"/>
<path fill-rule="evenodd" clip-rule="evenodd" d="M33.4891 46.4057C33.4891 46.4057 33.3953 47.2494 33.8266 47.3244C34.2578 47.3994 34.3891 47.2682 34.7828 47.4182C35.1953 47.5682 35.5891 46.6494 35.4391 46.2182C34.9703 46.0494 34.4266 45.8244 34.0141 46.0682C33.8828 46.1432 33.6953 46.2744 33.4891 46.4057Z" fill="#7E6641" stroke="#2B1C16" stroke-width="2" stroke-miterlimit="22.9256"/>
<path d="M43.7617 43.388C43.7617 43.388 43.668 44.3255 44.7742 44.2505C45.8805 44.1567 45.6367 43.2755 45.5992 42.9192C45.393 42.788 45.1492 42.6567 44.868 42.7505C44.568 42.8442 44.1367 43.1442 43.7617 43.388Z" stroke="#2B1C16" stroke-width="2" stroke-miterlimit="22.9256"/>
<path d="M38.3613 49.6133C38.7926 49.6133 38.9238 50.232 38.7926 50.6633C38.6801 51.1133 38.3238 51.3383 37.7988 51.1133C37.2738 50.8883 37.5363 49.9508 38.3613 49.6133Z" stroke="#2B1C16" stroke-width="2" stroke-miterlimit="22.9256"/>
<path d="M41.7567 49.3499C42.1129 49.3499 42.6379 49.7999 42.5817 50.2874C42.5254 50.7937 42.1317 50.7187 41.5317 50.7562C40.9317 50.7937 40.8004 50.3249 40.8379 49.9874C40.8754 49.6312 41.2879 49.1437 41.7567 49.3499Z" stroke="#2B1C16" stroke-width="2" stroke-miterlimit="22.9256"/>
<path fill-rule="evenodd" clip-rule="evenodd" d="M39.0546 37.7815C39.7484 37.7815 40.4234 37.7815 41.0609 37.3503C41.1921 37.294 41.3046 37.219 41.3796 37.3503C41.4359 37.4065 41.3796 37.5378 41.3234 37.669C40.9484 38.2315 40.4421 38.4753 39.8234 38.5503C39.2609 38.6065 38.6984 38.5503 38.1359 38.419C38.0046 38.3628 37.8171 38.3628 37.8921 38.1003C37.9484 37.9128 38.0796 37.7815 38.2671 37.7815C38.4921 37.7253 38.7359 37.7815 39.0546 37.7815Z" fill="#5D3A29"/>
<path fill-rule="evenodd" clip-rule="evenodd" d="M40.9875 34.9871C41.175 35.2309 41.3062 35.4934 41.3625 35.7934C41.4937 36.2996 41.3062 36.5996 40.8562 36.7309C40.2375 36.9184 39.5437 37.0496 38.85 37.0496C38.6062 37.0496 38.2875 37.1059 38.2875 36.8621C38.2312 36.6184 38.475 36.4309 38.7187 36.2996C38.85 36.2434 38.9625 36.2996 39.0937 36.2996C39.6 36.4309 40.0875 36.4871 40.5937 36.3559C40.7812 36.2996 40.9125 36.2246 40.9125 36.0371C40.8562 35.7184 40.7812 35.4746 40.5937 35.2309C40.5562 35.1184 40.5 35.1371 40.7437 34.9871C40.9875 34.8371 40.8375 34.8934 40.9875 34.9871Z" fill="#5D3A29"/>
</g>
<defs>
<clipPath id="clip0_11_13899">
<rect width="75" height="75" fill="white"/>
</clipPath>
</defs>
</svg>
