<svg width="620" height="620" viewBox="0 0 620 620" fill="none" xmlns="http://www.w3.org/2000/svg">
<g clip-path="url(#clip0_12_33)">
<path d="M598.667 308.359C598.667 467.437 469.709 596.395 310.631 596.395C151.553 596.395 22.5954 467.437 22.5954 308.359C22.5954 149.281 151.553 20.3227 310.631 20.3227C469.709 20.3227 598.667 149.281 598.667 308.359Z" fill="#F7F7F0"/>
<path d="M588.523 320.332L616.525 321.522L616.985 310.679L620.025 310.808L618.969 335.662L615.929 335.533L616.39 324.69L588.388 323.501L588.523 320.332Z" fill="#222222"/>
<path d="M587.506 337.526L618.309 341.585L615.772 360.837L612.756 360.439L614.878 344.332L604.226 342.928L602.442 356.469L599.426 356.071L601.21 342.531L590.108 341.068L587.986 357.176L584.969 356.778L587.506 337.526Z" fill="#222222"/>
<path d="M583.649 363.419L614.002 370.053L613.325 373.152L585.944 367.167L582.793 381.584L579.821 380.935L583.649 363.419Z" fill="#222222"/>
<path d="M579.132 383.166L608.825 392.309L603.11 410.868L600.203 409.972L604.984 394.445L594.715 391.283L590.696 404.336L587.788 403.441L591.807 390.388L581.106 387.093L576.324 402.62L573.417 401.724L579.132 383.166Z" fill="#222222"/>
<path d="M566.074 418.436C566.926 416.422 568.044 414.756 569.43 413.436C570.816 412.117 572.399 411.162 574.179 410.572C575.953 409.995 577.881 409.795 579.961 409.973C582.055 410.155 584.234 410.726 586.5 411.684C589.494 412.95 591.885 414.571 593.673 416.545C595.47 418.539 596.572 420.77 596.98 423.238C597.388 425.707 597.016 428.306 595.861 431.035C594.573 434.081 592.809 436.256 590.572 437.559C588.342 438.88 585.868 439.411 583.151 439.152L583.68 435.909C585.692 436.026 587.523 435.59 589.175 434.602C590.821 433.627 592.093 432.08 592.989 429.96C593.949 427.727 594.233 425.653 593.841 423.738C593.461 421.828 592.517 420.109 591.009 418.581C589.507 417.071 587.567 415.806 585.188 414.784C582.81 413.762 580.556 413.238 578.427 413.212C576.306 413.205 574.412 413.732 572.746 414.792C571.092 415.857 569.786 417.507 568.826 419.74C567.957 421.793 567.637 423.657 567.866 425.331C568.095 427.005 568.806 428.501 569.998 429.817C571.185 431.147 572.772 432.287 574.76 433.237L577.55 426.64L580.054 427.699L575.969 437.356C575.648 437.267 575.315 437.149 574.97 437.004C574.633 436.877 574.392 436.783 574.246 436.721C571.663 435.628 569.548 434.187 567.9 432.397C566.265 430.612 565.253 428.537 564.864 426.17C564.483 423.822 564.886 421.244 566.074 418.436Z" fill="#222222"/>
<path d="M559.169 435.299L586.374 450.306L580.58 460.81C580.434 461.075 580.258 461.364 580.052 461.677C579.852 462.01 579.626 462.329 579.376 462.635C578.377 463.94 577.216 464.868 575.893 465.42C574.576 465.991 573.193 466.205 571.743 466.063C570.287 465.933 568.848 465.476 567.424 464.691C565.371 463.558 563.888 462.034 562.974 460.117C562.06 458.2 561.964 456.126 562.685 453.896L562.99 452.807L567.971 443.777L557.637 438.076L559.169 435.299ZM550.082 451.773L564.112 452.515L563.663 455.741L548.321 454.966L550.082 451.773ZM570.616 445.236L566.396 452.887C566.271 453.114 566.137 453.385 565.996 453.701C565.854 454.018 565.735 454.338 565.638 454.662C565.326 455.706 565.289 456.679 565.53 457.584C565.763 458.501 566.19 459.32 566.811 460.04C567.425 460.773 568.154 461.373 568.998 461.838C569.842 462.304 570.738 462.601 571.685 462.729C572.638 462.877 573.565 462.805 574.465 462.513C575.359 462.234 576.163 461.684 576.879 460.863C577.102 460.608 577.303 460.333 577.482 460.038C577.674 459.749 577.832 459.492 577.958 459.265L582.178 451.614L570.616 445.236Z" fill="#222222"/>
<path d="M546.899 457.314L566.411 483.754L564.024 487.219L532.368 478.404L534.241 475.685L564.134 483.941L563.424 484.971L545.026 460.033L546.899 457.314ZM550.394 465.513L552.846 467.202L543.738 480.421L541.287 478.732L550.394 465.513Z" fill="#222222"/>
<path d="M530.465 481.016L553.971 501.332L552.067 503.536L524.313 495.69L536.139 521.966L534.206 524.202L510.716 503.9L512.691 501.615L530.827 517.289L519.912 493.227L521.252 491.676L546.628 499.006L528.475 483.318L530.465 481.016Z" fill="#222222"/>
<path d="M476.527 533.381L493.179 555.924L501.908 549.477L503.716 551.924L483.706 566.704L481.898 564.257L490.628 557.809L473.976 535.265L476.527 533.381Z" fill="#222222"/>
<path d="M462.4 543.422L478.594 569.936L462.022 580.058L460.437 577.462L474.302 568.993L468.701 559.824L457.046 566.942L455.46 564.346L467.115 557.227L461.279 547.671L447.414 556.139L445.828 553.543L462.4 543.422Z" fill="#222222"/>
<path d="M440.1 556.504L453.988 584.296L451.151 585.714L438.623 560.643L425.422 567.239L424.062 564.518L440.1 556.504Z" fill="#222222"/>
<path d="M421.995 565.325L433.561 594.161L415.539 601.39L414.406 598.566L429.485 592.518L425.485 582.546L412.809 587.63L411.677 584.806L424.353 579.722L420.184 569.329L405.105 575.377L403.973 572.554L421.995 565.325Z" fill="#222222"/>
<path d="M386.29 577.341C388.392 576.738 390.391 576.56 392.288 576.808C394.185 577.056 395.923 577.686 397.501 578.7C399.065 579.717 400.433 581.09 401.603 582.819C402.777 584.562 403.704 586.615 404.383 588.979C405.281 592.104 405.524 594.982 405.113 597.614C404.693 600.264 403.651 602.524 401.988 604.394C400.325 606.263 398.07 607.607 395.222 608.426C392.042 609.339 389.243 609.335 386.823 608.414C384.394 607.511 382.425 605.922 380.918 603.646L383.773 602.018C384.947 603.656 386.437 604.806 388.244 605.469C390.037 606.137 392.04 606.152 394.252 605.517C396.592 604.859 398.383 603.776 399.626 602.266C400.872 600.771 401.615 598.956 401.855 596.822C402.085 594.705 401.849 592.401 401.148 589.909C400.447 587.416 399.437 585.334 398.119 583.663C396.791 582.009 395.191 580.868 393.319 580.238C391.451 579.622 389.346 579.643 387.006 580.301C384.863 580.917 383.213 581.84 382.055 583.07C380.897 584.301 380.181 585.794 379.907 587.549C379.619 589.308 379.731 591.259 380.242 593.402L387.127 591.423L387.877 594.036L377.799 596.932C377.666 596.626 377.548 596.293 377.445 595.934C377.332 595.592 377.254 595.345 377.21 595.193C376.435 592.497 376.226 589.946 376.582 587.539C376.942 585.146 377.92 583.054 379.516 581.263C381.101 579.491 383.36 578.183 386.29 577.341Z" fill="#222222"/>
<path d="M368.686 582.605L374.04 613.209L362.223 615.276C361.925 615.329 361.59 615.373 361.217 615.409C360.831 615.462 360.441 615.486 360.047 615.482C358.403 615.521 356.952 615.198 355.694 614.513C354.423 613.845 353.389 612.901 352.592 611.683C351.78 610.466 351.235 609.058 350.955 607.457C350.551 605.147 350.809 603.036 351.73 601.122C352.651 599.209 354.207 597.835 356.397 596.999L357.436 596.554L367.595 594.777L365.562 583.152L368.686 582.605ZM350.153 585.847L358.368 597.245L355.572 598.917L346.562 586.475L350.153 585.847ZM368.116 597.753L359.508 599.258C359.253 599.303 358.958 599.369 358.623 599.457C358.288 599.545 357.964 599.652 357.65 599.78C356.642 600.19 355.86 600.773 355.306 601.527C354.737 602.283 354.367 603.129 354.194 604.065C354.008 605.003 353.998 605.946 354.164 606.895C354.33 607.845 354.66 608.729 355.154 609.548C355.636 610.384 356.272 611.061 357.064 611.579C357.841 612.1 358.774 612.383 359.862 612.426C360.201 612.44 360.541 612.424 360.884 612.379C361.229 612.348 361.529 612.31 361.784 612.265L370.391 610.759L368.116 597.753Z" fill="#222222"/>
<path d="M344.082 586.798L335.807 618.599L331.612 618.924L318.548 588.772L321.839 588.517L334.229 616.947L332.982 617.043L340.791 587.052L344.082 586.798ZM339.908 594.673L340.138 597.641L324.133 598.879L323.904 595.91L339.908 594.673Z" fill="#222222"/>
<path d="M314.014 588.954L312.815 620L309.905 619.888L298.71 593.308L285.564 618.948L282.61 618.834L283.808 587.809L286.827 587.926L285.902 611.879L297.888 588.331L299.936 588.411L310.049 612.811L310.974 588.837L314.014 588.954Z" fill="#222222"/>
<path d="M239.642 579.642L232.517 606.748L243.013 609.507L242.239 612.449L218.18 606.125L218.953 603.183L229.449 605.942L236.574 578.836L239.642 579.642Z" fill="#222222"/>
<path d="M222.978 574.882L212.392 604.092L194.136 597.476L195.172 594.616L210.446 600.151L214.108 590.05L201.267 585.396L202.304 582.536L215.144 587.19L218.96 576.662L203.685 571.126L204.722 568.266L222.978 574.882Z" fill="#222222"/>
<path d="M198.943 565.657L185.992 593.898L183.109 592.576L194.792 567.1L181.377 560.949L182.645 558.183L198.943 565.657Z" fill="#222222"/>
<path d="M180.719 557.042L165.412 584.078L148.514 574.511L150.013 571.864L164.151 579.868L169.444 570.518L157.559 563.789L159.058 561.142L170.943 567.871L176.46 558.126L162.322 550.122L163.821 547.475L180.719 557.042Z" fill="#222222"/>
<path d="M149.102 536.715C150.889 537.976 152.279 539.423 153.274 541.057C154.269 542.692 154.865 544.441 155.064 546.306C155.25 548.163 155.036 550.089 154.421 552.084C153.797 554.091 152.777 556.099 151.359 558.109C149.486 560.766 147.394 562.758 145.084 564.086C142.755 565.418 140.341 566.021 137.842 565.895C135.343 565.769 132.883 564.853 130.461 563.145C127.758 561.238 126.007 559.053 125.21 556.59C124.393 554.13 124.399 551.6 125.23 549L128.287 550.206C127.745 552.147 127.782 554.03 128.396 555.854C128.999 557.669 130.241 559.24 132.121 560.567C134.099 561.98 136.066 562.698 138.021 562.721C139.967 562.756 141.848 562.199 143.662 561.05C145.456 559.904 147.105 558.277 148.609 556.169C150.113 554.062 151.104 551.971 151.581 549.896C152.039 547.825 151.927 545.863 151.245 544.009C150.555 542.167 149.221 540.54 147.243 539.127C145.421 537.842 143.668 537.133 141.983 537.001C140.298 536.869 138.686 537.246 137.147 538.131C135.595 539.008 134.144 540.317 132.793 542.057L138.647 546.186L137.08 548.408L128.511 542.364C128.667 542.069 128.852 541.768 129.068 541.463C129.263 541.16 129.406 540.945 129.498 540.815C131.114 538.523 132.972 536.762 135.072 535.533C137.163 534.315 139.406 533.767 141.801 533.89C144.177 534.016 146.61 534.958 149.102 536.715Z" fill="#222222"/>
<path d="M133.963 526.24L113.477 549.598L104.458 541.688C104.231 541.489 103.987 541.255 103.724 540.987C103.442 540.72 103.178 540.432 102.934 540.121C101.873 538.866 101.215 537.533 100.959 536.123C100.684 534.714 100.771 533.317 101.22 531.932C101.659 530.537 102.414 529.229 103.486 528.007C105.032 526.244 106.839 525.122 108.907 524.64C110.975 524.158 113.021 524.508 115.045 525.69L116.043 526.221L123.797 533.021L131.579 524.148L133.963 526.24ZM119.818 513.834L116.089 527.38L113.033 526.25L117.077 511.43L119.818 513.834ZM121.805 535.292L115.236 529.531C115.041 529.36 114.804 529.171 114.526 528.965C114.247 528.759 113.96 528.574 113.664 528.41C112.712 527.882 111.768 527.638 110.833 527.678C109.888 527.71 108.996 527.952 108.159 528.404C107.312 528.847 106.57 529.431 105.935 530.155C105.3 530.88 104.818 531.691 104.489 532.589C104.14 533.488 104.012 534.409 104.104 535.351C104.186 536.283 104.551 537.187 105.199 538.062C105.401 538.334 105.626 538.589 105.876 538.828C106.117 539.077 106.334 539.287 106.529 539.458L113.099 545.219L121.805 535.292Z" fill="#222222"/>
<path d="M115.215 509.665L85.2241 523.093L82.348 520.022L97.708 490.973L99.9646 493.382L85.5271 520.829L84.6717 519.915L112.959 507.255L115.215 509.665ZM106.46 511.332L104.287 513.367L93.3135 501.652L95.4866 499.616L106.46 511.332Z" fill="#222222"/>
<path d="M95.6037 488.609L70.7484 507.251L69.0008 504.92L82.5764 479.474L54.3855 485.433L52.612 483.068L77.4501 464.44L79.2624 466.857L60.0858 481.239L85.9206 475.698L87.1504 477.338L74.5846 500.571L93.7784 486.176L95.6037 488.609Z" fill="#222222"/>
<path d="M56.1157 425.14L30.5536 436.633L35.0038 446.531L32.2292 447.779L22.0281 425.09L24.8028 423.842L29.253 433.74L54.8151 422.247L56.1157 425.14Z" fill="#222222"/>
<path d="M49.3667 409.363L20.001 419.508L13.6598 401.155L16.5352 400.161L21.8406 415.517L31.9963 412.008L27.5364 399.1L30.4118 398.106L34.8717 411.015L45.4556 407.358L40.1502 392.002L43.0256 391.009L49.3667 409.363Z" fill="#222222"/>
<path d="M41.3831 384.903L11.2757 392.573L10.4927 389.5L37.6521 382.581L34.0088 368.28L36.9568 367.529L41.3831 384.903Z" fill="#222222"/>
<path d="M36.5702 365.177L5.92578 370.296L2.72643 351.143L5.72703 350.642L8.40382 366.667L19.0017 364.896L16.7515 351.426L19.7521 350.924L22.0023 364.395L33.0471 362.55L30.3703 346.526L33.3709 346.025L36.5702 365.177Z" fill="#222222"/>
<path d="M32.4694 328.047C32.6127 330.229 32.3615 332.22 31.7158 334.021C31.0701 335.822 30.0845 337.386 28.759 338.713C27.4325 340.025 25.8001 341.069 23.8619 341.845C21.9092 342.622 19.7057 343.091 17.2514 343.252C14.0076 343.465 11.1434 343.091 8.65854 342.13C6.15843 341.156 4.17168 339.657 2.69828 337.635C1.22488 335.613 0.391084 333.123 0.196887 330.167C-0.0199353 326.865 0.578835 324.131 1.9932 321.962C3.39227 319.78 5.36387 318.195 7.90801 317.206L8.89235 320.341C7.04207 321.14 5.6009 322.352 4.56884 323.977C3.53583 325.587 3.09474 327.54 3.24557 329.837C3.39053 332.263 4.0684 334.244 5.27915 335.779C6.47555 337.315 8.09097 338.427 10.1254 339.115C12.1445 339.789 14.4463 340.049 17.0308 339.894C19.6153 339.738 21.8643 339.194 23.7778 338.261C25.6761 337.315 27.1317 335.994 28.1447 334.299C29.1434 332.604 29.5702 330.544 29.4253 328.117C29.2791 325.892 28.7279 324.084 27.7715 322.69C26.8151 321.297 25.5086 320.281 23.8521 319.64C22.1946 318.985 20.2646 318.679 18.062 318.723L18.5314 325.87L15.8187 326.049L15.1315 315.585C15.4588 315.521 15.809 315.476 16.1822 315.451C16.5401 315.414 16.798 315.389 16.9559 315.379C19.7547 315.195 22.2922 315.533 24.5686 316.393C26.8306 317.253 28.6667 318.653 30.077 320.593C31.4721 322.52 32.2695 325.004 32.4694 328.047Z" fill="#222222"/>
<path d="M31.0411 308.42L0 307.101L0.509092 295.116C0.521911 294.814 0.550626 294.477 0.595238 294.105C0.626091 293.717 0.685685 293.331 0.774021 292.946C1.0873 291.333 1.71325 289.984 2.65185 288.901C3.5767 287.803 4.71958 286.995 6.08049 286.477C7.442 285.944 8.93471 285.713 10.5586 285.782C12.9011 285.881 14.9083 286.586 16.5803 287.895C18.2523 289.204 19.2622 291.018 19.6101 293.336L19.822 294.446L19.3844 304.75L31.1757 305.251L31.0411 308.42ZM31.8395 289.623L18.9475 295.208L17.9125 292.119L31.9942 285.98L31.8395 289.623ZM16.3665 304.622L16.7373 295.892C16.7483 295.633 16.7468 295.331 16.7327 294.984C16.7186 294.638 16.6826 294.298 16.6248 293.965C16.44 292.892 16.0387 292.004 15.4207 291.301C14.8033 290.583 14.0561 290.041 13.1791 289.672C12.3028 289.289 11.3832 289.078 10.4204 289.037C9.45751 288.996 8.52327 289.129 7.61762 289.436C6.69822 289.728 5.90052 290.205 5.22453 290.868C4.54915 291.516 4.07391 292.366 3.79881 293.42C3.71292 293.748 3.65546 294.083 3.62644 294.428C3.58305 294.771 3.55586 295.073 3.54487 295.331L3.17404 304.062L16.3665 304.622Z" fill="#222222"/>
<path d="M32.1412 283.758L2.84976 268.865L3.43134 264.698L35.6814 258.394L35.2251 261.663L4.80181 267.678L4.9748 266.438L32.5976 280.489L32.1412 283.758ZM25.3427 277.995L22.3939 277.583L24.6128 261.685L27.5617 262.097L25.3427 277.995Z" fill="#222222"/>
<path d="M36.2951 254.531L6.21707 246.746L6.94686 243.926L35.3014 238.65L13.0501 220.344L13.7907 217.483L43.8478 225.262L43.091 228.186L19.885 222.18L40.3387 238.907L39.8251 240.891L13.8304 245.574L37.0573 251.585L36.2951 254.531Z" fill="#222222"/>
<path d="M60.9838 184.403L36.0535 171.597L31.0949 181.251L28.3888 179.861L39.7553 157.732L42.4613 159.122L37.5027 168.776L62.433 181.582L60.9838 184.403Z" fill="#222222"/>
<path d="M69.6044 168.325L43.3915 151.647L53.8155 135.264L56.3822 136.897L47.6608 150.604L56.7261 156.372L64.0577 144.849L66.6243 146.482L59.2928 158.005L68.7403 164.016L77.4618 150.309L80.0285 151.942L69.6044 168.325Z" fill="#222222"/>
<path d="M83.3251 147.426L58.5379 128.694L60.4501 126.163L82.8102 143.061L91.7079 131.287L94.1349 133.121L83.3251 147.426Z" fill="#222222"/>
<path d="M96.1178 130.826L72.9844 110.086L85.9466 95.6278L88.2118 97.6586L77.3667 109.755L85.367 116.928L94.4838 106.759L96.7489 108.79L87.6322 118.959L95.9699 126.433L106.815 114.337L109.08 116.367L96.1178 130.826Z" fill="#222222"/>
<path d="M121.895 105.005C120.283 106.482 118.573 107.532 116.764 108.156C114.955 108.779 113.119 108.989 111.254 108.786C109.401 108.572 107.565 107.953 105.746 106.927C103.918 105.89 102.173 104.465 100.512 102.651C98.3154 100.255 96.8146 97.7866 96.0092 95.247C95.2046 92.6871 95.1299 90.1998 95.785 87.7851C96.4401 85.3703 97.8599 83.162 100.044 81.1601C102.484 78.925 104.991 77.6804 107.568 77.4263C110.145 77.1519 112.616 77.6975 114.979 79.063L113.15 81.793C111.369 80.8499 109.522 80.4843 107.609 80.6961C105.706 80.8981 103.907 81.7766 102.21 83.3314C100.408 84.9631 99.2873 86.7315 98.8478 88.6364C98.3987 90.5308 98.5424 92.4866 99.279 94.504C100.016 96.501 101.255 98.4588 102.993 100.377C104.732 102.296 106.564 103.709 108.489 104.618C110.415 105.506 112.356 105.815 114.313 105.544C116.259 105.263 118.133 104.306 119.935 102.674C121.579 101.168 122.645 99.6059 123.133 97.9881C123.621 96.3703 123.596 94.7149 123.059 93.0219C122.533 91.3191 121.563 89.6225 120.151 87.9319L114.87 92.7714L113.033 90.7672L120.764 83.6829C121.019 83.8976 121.273 84.1428 121.526 84.4185C121.779 84.6739 121.96 84.86 122.067 84.9766C123.962 87.0445 125.286 89.2352 126.04 91.5485C126.785 93.8513 126.842 96.1597 126.212 98.4737C125.582 100.767 124.143 102.944 121.895 105.005Z" fill="#222222"/>
<path d="M135.739 91.9971L117.279 67.0063L126.929 59.8789C127.171 59.6995 127.452 59.5102 127.77 59.3111C128.091 59.092 128.429 58.8959 128.784 58.723C130.237 57.954 131.679 57.5949 133.111 57.6456C134.547 57.6763 135.893 58.0586 137.151 58.7928C138.42 59.5184 139.537 60.5349 140.503 61.8423C141.896 63.7282 142.608 65.7328 142.638 67.8561C142.669 69.9794 141.891 71.9041 140.305 73.6301L139.573 74.4922L131.278 80.6196L138.29 90.1127L135.739 91.9971ZM150.872 80.8189L138.431 74.2896L140.186 71.545L153.805 78.6525L150.872 80.8189ZM129.483 78.19L136.512 72.9983C136.72 72.8445 136.954 72.6534 137.215 72.4252C137.476 72.1969 137.718 71.9556 137.941 71.7012C138.66 70.8837 139.1 70.0138 139.259 69.0915C139.43 68.1606 139.383 67.2382 139.12 66.3244C138.867 65.4019 138.455 64.5531 137.882 63.778C137.31 63.0028 136.62 62.3591 135.812 61.8469C135.008 61.3145 134.135 60.9931 133.196 60.8827C132.267 60.7637 131.307 60.9279 130.314 61.3752C130.005 61.5139 129.707 61.68 129.421 61.8735C129.126 62.0555 128.875 62.2234 128.667 62.3772L121.638 67.5689L129.483 78.19Z" fill="#222222"/>
<path d="M154.921 77.7828L148.096 45.639L151.702 43.4725L176.875 64.5949L174.045 66.2947L150.246 46.4112L151.319 45.7668L157.751 76.0829L154.921 77.7828ZM155.131 68.8726L153.598 66.3203L167.358 58.0542L168.891 60.6065L155.131 68.8726Z" fill="#222222"/>
<path d="M180.736 62.3314L167.89 34.0423L170.542 32.838L192.465 51.5793L192.722 22.7666L195.413 21.5445L208.25 49.814L205.5 51.0629L195.589 29.237L195.431 55.6588L193.564 56.5063L173.586 39.2281L183.506 61.0736L180.736 62.3314Z" fill="#222222"/>
<path d="M251.281 37.2911L245.61 9.84393L234.982 12.0399L234.366 9.06065L258.728 4.02695L259.344 7.0062L248.716 9.20216L254.387 36.6493L251.281 37.2911Z" fill="#222222"/>
<path d="M267.212 34.1743L263.627 3.31269L282.916 1.07236L283.267 4.09422L267.129 5.96863L268.368 16.6416L281.934 15.0659L282.285 18.0878L268.719 19.6635L270.011 30.7865L286.149 28.9121L286.5 31.9339L267.212 34.1743Z" fill="#222222"/>
<path d="M294.614 31.4527L293.654 0.398414L296.824 0.3005L297.69 28.314L312.441 27.8584L312.534 30.8991L294.614 31.4527Z" fill="#222222"/>
<path d="M315.88 31.0237L317.558 0L336.948 1.04848L336.784 4.08622L320.561 3.20899L319.981 13.938L333.618 14.6755L333.454 17.7132L319.816 16.9758L319.212 28.1572L335.434 29.0345L335.27 32.0722L315.88 31.0237Z" fill="#222222"/>
<path d="M352.913 35.054C350.753 34.7186 348.864 34.0397 347.247 33.0171C345.63 31.9946 344.318 30.692 343.312 29.1093C342.32 27.5288 341.657 25.7081 341.322 23.6474C340.989 21.5724 341.011 19.3196 341.388 16.8891C341.887 13.6769 342.876 10.9629 344.355 8.7471C345.851 6.51933 347.746 4.90671 350.041 3.90923C352.336 2.91174 354.947 2.64029 357.875 3.09486C361.144 3.60239 363.683 4.78256 365.491 6.63539C367.316 8.4762 368.434 10.7458 368.845 13.4443L365.57 13.7219C365.193 11.742 364.325 10.0715 362.964 8.71028C361.617 7.35129 359.807 6.49527 357.533 6.14221C355.133 5.75507 353.052 5.98515 351.29 6.83245C349.531 7.66553 348.093 8.99992 346.979 10.8356C345.88 12.6593 345.126 14.8493 344.714 17.4055C344.303 19.9617 344.344 22.2752 344.838 24.3461C345.348 26.4049 346.32 28.1133 347.754 29.4713C349.19 30.8151 351.108 31.6806 353.508 32.0677C355.711 32.4098 357.596 32.2658 359.164 31.6359C360.732 31.0059 362.009 29.9524 362.996 28.4752C363.996 27.0002 364.715 25.1831 365.152 23.0239L358.074 21.925L358.491 19.2386L368.852 20.8473C368.844 21.1808 368.812 21.5324 368.754 21.9019C368.713 22.2594 368.681 22.5164 368.656 22.6727C368.226 25.4444 367.344 27.8474 366.009 29.8818C364.676 31.902 362.91 33.3891 360.709 34.343C358.525 35.2848 355.926 35.5218 352.913 35.054Z" fill="#222222"/>
<path d="M369.814 37.3017L377.712 7.25345L389.314 10.3032C389.606 10.38 389.929 10.4798 390.284 10.6027C390.656 10.7154 391.02 10.8558 391.378 11.0241C392.888 11.6738 394.072 12.5725 394.93 13.7203C395.806 14.8577 396.352 16.1465 396.568 17.5865C396.799 19.0302 396.707 20.538 396.294 22.1099C395.698 24.3775 394.582 26.1887 392.947 27.5435C391.312 28.8984 389.325 29.4989 386.986 29.3451L385.856 29.3158L375.881 26.6939L372.881 38.108L369.814 37.3017ZM388.009 42.0848L385.298 28.299L388.536 27.9456L391.536 43.0117L388.009 42.0848ZM376.649 23.7725L385.1 25.994C385.351 26.0598 385.647 26.1227 385.988 26.1826C386.329 26.2426 386.669 26.2798 387.007 26.2944C388.095 26.3424 389.048 26.1393 389.866 25.6852C390.699 25.2347 391.388 24.6203 391.935 23.8419C392.495 23.0671 392.898 22.2137 393.143 21.2817C393.388 20.3496 393.457 19.4085 393.35 18.4582C393.26 17.4977 392.964 16.6167 392.461 15.8152C391.972 15.0173 391.241 14.3718 390.271 13.8786C389.969 13.7249 389.653 13.5973 389.323 13.4956C388.996 13.38 388.708 13.2893 388.457 13.2235L380.006 11.002L376.649 23.7725Z" fill="#222222"/>
<path d="M393.975 43.6262L414.814 18.2187L418.759 19.6819L417.987 52.5333L414.892 51.3852L415.554 20.3802L416.728 20.8154L397.07 44.7743L393.975 43.6262ZM401.065 38.2247L402.1 35.4332L417.151 41.016L416.115 43.8076L401.065 38.2247Z" fill="#222222"/>
<path d="M422.526 54.2976L436.619 26.6088L439.215 27.9301L438.246 56.755L460.923 38.9796L463.558 40.3204L449.474 67.9899L446.782 66.6197L457.656 45.2571L436.908 61.6182L435.082 60.6885L436.12 34.2957L425.237 55.6775L422.526 54.2976Z" fill="#222222"/>
<path d="M485.959 93.6755L503.818 72.0754L495.454 65.1601L497.392 62.8155L516.565 78.6673L514.626 81.0118L506.262 74.0965L488.403 95.6965L485.959 93.6755Z" fill="#222222"/>
<path d="M499.749 105.484L521.638 83.4348L535.418 97.1155L533.275 99.2744L521.745 87.8282L514.175 95.4534L523.867 105.076L521.724 107.235L512.032 97.6124L504.143 105.559L515.672 117.005L513.529 119.164L499.749 105.484Z" fill="#222222"/>
<path d="M517.159 123.258L540.74 103.029L542.805 105.436L521.533 123.685L531.142 134.886L528.833 136.866L517.159 123.258Z" fill="#222222"/>
<path d="M530.687 139.336L555.879 121.151L567.244 136.896L564.777 138.677L555.268 125.503L546.556 131.792L554.55 142.866L552.083 144.647L544.089 133.573L535.01 140.127L544.519 153.3L542.052 155.08L530.687 139.336Z" fill="#222222"/>
<path d="M550.589 170.326C549.49 168.436 548.83 166.54 548.608 164.64C548.386 162.74 548.574 160.901 549.171 159.123C549.776 157.358 550.774 155.697 552.166 154.14C553.569 152.576 555.335 151.177 557.461 149.941C560.272 148.309 563.004 147.37 565.658 147.127C568.33 146.889 570.776 147.348 572.995 148.504C575.213 149.661 577.067 151.52 578.555 154.082C580.217 156.943 580.896 159.659 580.593 162.23C580.31 164.807 579.249 167.103 577.409 169.12L575.134 166.749C576.436 165.21 577.188 163.484 577.39 161.57C577.6 159.669 577.127 157.723 575.971 155.733C574.762 153.624 573.275 152.151 571.508 151.314C569.753 150.47 567.812 150.192 565.684 150.48C563.575 150.773 561.398 151.564 559.152 152.852C556.906 154.14 555.133 155.627 553.834 157.313C552.554 159.005 551.837 160.835 551.683 162.804C551.542 164.766 552.076 166.801 553.284 168.91C554.404 170.838 555.702 172.214 557.178 173.036C558.654 173.859 560.276 174.189 562.045 174.027C563.821 173.877 565.686 173.293 567.639 172.275L564.041 166.081L566.392 164.715L571.659 173.782C571.394 173.986 571.1 174.181 570.777 174.369C570.473 174.562 570.253 174.699 570.116 174.778C567.691 176.187 565.268 177.012 562.846 177.254C560.438 177.489 558.171 177.051 556.045 175.94C553.939 174.834 552.12 172.963 550.589 170.326Z" fill="#222222"/>
<path d="M560.451 186.942L588.835 174.307L593.714 185.267C593.836 185.543 593.961 185.857 594.086 186.211C594.231 186.571 594.35 186.944 594.442 187.328C594.88 188.912 594.919 190.398 594.561 191.786C594.221 193.181 593.557 194.413 592.569 195.483C591.587 196.565 590.353 197.437 588.868 198.098C586.726 199.052 584.616 199.314 582.536 198.886C580.456 198.458 578.744 197.283 577.401 195.362L576.717 194.462L572.523 185.04L561.741 189.84L560.451 186.942ZM568.102 204.13L577.161 193.391L579.462 195.696L569.585 207.461L568.102 204.13ZM575.282 183.812L578.836 191.795C578.941 192.031 579.077 192.302 579.244 192.605C579.411 192.909 579.594 193.197 579.794 193.47C580.437 194.349 581.192 194.966 582.058 195.32C582.93 195.688 583.841 195.841 584.79 195.781C585.745 195.733 586.663 195.514 587.544 195.122C588.424 194.73 589.201 194.195 589.876 193.517C590.569 192.846 591.071 192.064 591.382 191.17C591.698 190.289 591.745 189.316 591.522 188.25C591.454 187.918 591.355 187.592 591.228 187.271C591.114 186.943 591.004 186.662 590.899 186.425L587.346 178.442L575.282 183.812Z" fill="#222222"/>
<path d="M570.442 209.535L603.3 209.875L604.629 213.867L578.531 233.834L577.488 230.702L602.078 211.805L602.474 212.993L571.484 212.667L570.442 209.535ZM579.092 211.68L581.917 210.74L586.987 225.97L584.162 226.911L579.092 211.68Z" fill="#222222"/>
<path d="M579.61 237.312L610.012 230.91L610.613 233.76L587.562 251.094L615.633 257.596L616.242 260.488L585.861 266.887L585.238 263.931L608.694 258.991L582.936 253.105L582.514 251.099L603.714 235.345L580.237 240.289L579.61 237.312Z" fill="#222222"/>
</g>
<defs>
<clipPath id="clip0_12_33">
<rect width="620" height="620" fill="white"/>
</clipPath>
</defs>
</svg>
