<svg width="16" height="16" viewBox="0 0 16 16" fill="none" xmlns="http://www.w3.org/2000/svg">
<path fill-rule="evenodd" clip-rule="evenodd" d="M0.0361328 9.65027H4.41402V11.5526H3.7693V10.2132H0.684661V11.5526H0.0361328V9.65027ZM6.26378 11.61C5.97823 11.61 5.71298 11.5619 5.46867 11.4656C5.22436 11.3694 5.03145 11.2435 4.88994 11.0892C4.74844 10.9343 4.67736 10.7722 4.67736 10.6021C4.67736 10.432 4.74844 10.2653 4.88994 10.1097C5.03145 9.95349 5.22436 9.82758 5.46867 9.73134C5.71298 9.63511 5.97759 9.58699 6.26378 9.58699C6.44464 9.58699 6.61026 9.61203 6.76192 9.66147C6.91358 9.71091 7.04621 9.7788 7.16106 9.86516L7.19787 9.65225H7.80959V11.5546H7.19787L7.16487 11.3338C7.05001 11.4201 6.91612 11.488 6.76382 11.5375C6.61089 11.5869 6.44464 11.612 6.26378 11.612V11.61ZM5.3665 10.5982C5.3665 10.7735 5.45217 10.9099 5.62287 11.0088C5.79357 11.1077 6.00742 11.1571 6.26378 11.1571C6.52015 11.1571 6.734 11.1077 6.9047 11.0088C7.0754 10.9099 7.16106 10.7728 7.16106 10.5982C7.16106 10.4894 7.12045 10.3918 7.03859 10.3068C6.95673 10.2218 6.84759 10.1558 6.71052 10.109C6.57409 10.0622 6.42496 10.0385 6.26378 10.0385C6.1026 10.0385 5.95348 10.0622 5.81705 10.109C5.68062 10.1558 5.57084 10.2218 5.48898 10.3068C5.40712 10.3918 5.3665 10.4887 5.3665 10.5982ZM9.78373 9.59358C9.79896 9.59358 10.5573 9.59358 10.5725 9.59358C10.8403 9.59819 11.0897 9.64631 11.3194 9.73794C11.643 9.86647 12.0618 10.2079 12.0618 10.6014C12.0618 10.995 11.6468 11.343 11.3194 11.4729C11.0871 11.5652 10.8352 11.6133 10.5636 11.6172C10.5509 11.6172 9.79642 11.6172 9.78373 11.6172C9.41759 11.6172 9.1168 11.5335 8.88265 11.3661V12.0002H8.23412V9.64961H8.84584L8.87884 9.84736C9.11046 9.67729 9.41251 9.59226 9.78373 9.59226V9.59358ZM8.88645 10.6054C8.88645 10.7194 8.92706 10.819 9.00766 10.904C9.08825 10.989 9.19676 11.0536 9.33382 11.0978C9.47026 11.142 9.62065 11.1644 9.78437 11.1644C9.79579 11.1644 10.5497 11.1644 10.5611 11.1644C10.7115 11.1617 10.8498 11.1393 10.9767 11.0985C11.1138 11.0543 11.2223 10.9897 11.3029 10.9047C11.3835 10.8196 11.4235 10.7201 11.4235 10.6061C11.4235 10.492 11.3828 10.3932 11.3029 10.3094C11.2223 10.2257 11.1138 10.1611 10.9767 10.1156C10.8511 10.0735 10.7146 10.051 10.5668 10.0477C10.5535 10.0477 9.79769 10.0477 9.78437 10.0477C9.62065 10.0477 9.47026 10.0702 9.33382 10.1143C9.19739 10.1585 9.08825 10.2237 9.00766 10.3081C8.92706 10.3931 8.88645 10.4927 8.88645 10.6067V10.6054ZM12.5041 9.65027H13.1527V10.2251L15.9866 9.55469V10.0952L13.7092 10.6133L15.9841 11.08V11.6205L13.1527 10.9937V11.5566H12.5041V9.65027Z" fill="#FFFF00"/>
<path fill-rule="evenodd" clip-rule="evenodd" d="M1.74379 8.15692C1.19362 8.0943 0.559688 8.01256 0.186562 7.61574C0.0596486 7.48061 0 7.33626 0 7.18992C0 7.04358 0.0577449 6.89329 0.186562 6.76014C0.5489 6.38573 1.19108 6.27763 1.74379 6.21501V5.9375H2.37773V6.21501C2.94122 6.27895 3.54914 6.32707 3.94257 6.76212C4.06758 6.89989 4.1285 7.04358 4.1285 7.18992C4.1285 7.33626 4.06568 7.47798 3.94257 7.61574C3.57262 8.02838 2.97041 8.07716 2.37773 8.15692V8.83916H1.74379V8.15692ZM0.680891 7.17805C0.680891 7.3145 0.750694 7.42458 0.890299 7.50764C1.0299 7.59069 1.53121 7.64606 1.74379 7.67309V6.69818C1.53121 6.72784 1.0299 6.78387 0.890299 6.86561C0.750694 6.94735 0.680891 7.05149 0.680891 7.17805ZM2.37773 7.67309C2.58777 7.64343 3.10177 7.58806 3.2401 7.50764C3.37844 7.42722 3.44761 7.31978 3.44761 7.18597C3.44761 7.05215 3.37844 6.95064 3.2401 6.86759C3.10177 6.78453 2.58777 6.72784 2.37773 6.69818V7.67309ZM4.42738 6.25917H5.0721V6.65006C5.0721 6.85572 5.16031 7.0126 5.33735 7.12071C5.51376 7.22881 5.73015 7.28286 5.98588 7.28286C5.99857 7.28286 7.24232 7.28286 7.25438 7.28286C7.48854 7.27825 7.68525 7.22749 7.84389 7.13059C8.01079 7.02908 8.12691 6.87022 8.12691 6.65072V6.25983H8.77163V7.6665C8.77163 7.91962 8.69612 8.13385 8.54573 8.31051C8.39533 8.4865 8.20116 8.61899 7.96383 8.70666C7.73919 8.78972 7.50504 8.83388 7.26009 8.8385C7.2455 8.8385 6.00047 8.8385 5.98588 8.8385C5.73967 8.8385 5.49663 8.79763 5.25676 8.71589C5.01689 8.63416 4.81827 8.51089 4.66217 8.34742C4.50543 8.18395 4.42738 7.98751 4.42738 7.75944H5.0721C5.0721 7.89589 5.11969 8.00597 5.21551 8.08902C5.3107 8.17208 5.42873 8.2314 5.56833 8.26568C5.70794 8.30062 5.84691 8.31776 5.98588 8.31776C5.9973 8.31776 7.23979 8.31776 7.25121 8.31776C7.453 8.3138 7.64147 8.27293 7.81661 8.19515C8.0019 8.11341 8.12628 7.96906 8.12628 7.7601V7.60783C8 7.66716 7.85785 7.71462 7.69985 7.74955C7.5539 7.78185 7.40541 7.79899 7.25375 7.80163C7.24169 7.80163 5.99794 7.80163 5.98524 7.80163C5.7587 7.80163 5.52455 7.7601 5.28341 7.67704C5.04228 7.59399 4.83921 7.46611 4.67423 7.29407C4.50924 7.12202 4.42675 6.90911 4.42675 6.65599V6.26181L4.42738 6.25917ZM9.03561 7.67704H9.41191L9.40112 6.25917H15.6478V7.67704H15.9956V8.83454H15.3616V8.17208H9.66637L9.67018 8.83454H9.03625V7.67704H9.03561ZM15.0171 7.67704V6.76014H10.042V7.67704H15.0171Z" fill="#FFFF00"/>
<path fill-rule="evenodd" clip-rule="evenodd" d="M2.18654 4.94299H0.677533V5.61535H0.0302734V3.71562H0.677533V4.38072H2.18654V3.71562H2.83379V5.61864H2.18654V4.94234V4.94299ZM4.90122 5.67269C4.58457 5.67269 4.29013 5.62457 4.0179 5.52834C3.7463 5.4321 3.53055 5.3062 3.37064 5.15063C3.21073 4.99507 3.13141 4.83357 3.13141 4.66614C3.13141 4.49871 3.21136 4.33326 3.37064 4.17638C3.53055 4.0195 3.7463 3.89294 4.0179 3.7967C4.28949 3.70046 4.58393 3.65234 4.90122 3.65234C5.2185 3.65234 5.50913 3.70046 5.78073 3.7967C6.05232 3.89294 6.26808 4.0195 6.42799 4.17638C6.5879 4.33326 6.66722 4.49674 6.66722 4.66614C6.66722 4.83555 6.58726 4.99507 6.42799 5.15063C6.26808 5.3062 6.05232 5.4321 5.78073 5.52834C5.50913 5.62457 5.21596 5.67269 4.90122 5.67269ZM3.82626 4.65098C3.82626 4.77029 3.87893 4.86917 3.98363 4.94893C4.08834 5.02869 4.22286 5.08735 4.38785 5.12558C4.55221 5.16382 4.72354 5.18227 4.90185 5.18227C5.08017 5.18227 5.24388 5.16382 5.40824 5.1269C5.57259 5.08999 5.70839 5.03264 5.81436 4.9542C5.92033 4.87576 5.97364 4.7782 5.97364 4.66153C5.97364 4.54486 5.9197 4.45125 5.81246 4.37281C5.70522 4.29437 5.56942 4.23637 5.40443 4.19813C5.23944 4.1599 5.07255 4.14145 4.90185 4.14145C4.73115 4.14145 4.55982 4.16056 4.39547 4.19813C4.23111 4.23637 4.09468 4.29371 3.98744 4.37084C3.8802 4.44796 3.82626 4.5409 3.82626 4.65032V4.65098ZM11.0324 5.67269C10.8522 5.67269 10.6828 5.64765 10.5241 5.59689L10.4397 5.616H9.84387V3.71628H10.5241V4.29371C10.6828 4.24296 10.8522 4.21791 11.0324 4.21791C11.2469 4.21791 11.4449 4.25351 11.627 4.32404C11.8085 4.39523 11.9525 4.48685 12.0585 4.59957C12.1645 4.71229 12.2178 4.8283 12.2178 4.94695C12.2178 5.0656 12.1645 5.17832 12.0585 5.29104C11.9525 5.40375 11.8085 5.49538 11.627 5.56657C11.4455 5.63776 11.2475 5.67269 11.0324 5.67269ZM10.5349 4.94299C10.5349 5.02935 10.5819 5.09658 10.6758 5.14602C10.7697 5.19546 10.8884 5.21985 11.0324 5.21985C11.1765 5.21985 11.2958 5.19546 11.3909 5.14602C11.4861 5.09658 11.5337 5.02869 11.5337 4.94299C11.5337 4.8573 11.4861 4.7927 11.3909 4.74327C11.2958 4.69383 11.1765 4.66944 11.0324 4.66944C10.8884 4.66944 10.7729 4.69449 10.6777 4.74327C10.5825 4.7927 10.5349 4.85928 10.5349 4.94299ZM12.3536 3.70837H13.0376V5.6081H12.3536V3.70837ZM13.5345 5.61535V3.71562H14.2294V5.02605L14.928 3.71562H15.9998V5.61535H15.305V4.29306L14.5955 5.61864L13.5351 5.61469L13.5345 5.61535Z" fill="#FC225F"/>
<path fill-rule="evenodd" clip-rule="evenodd" d="M14.5203 3C14.5425 3.1147 14.5717 3.19511 14.6072 3.2406C14.6434 3.28674 14.6872 3.30915 14.7398 3.30915C14.7925 3.30915 14.8363 3.28608 14.8725 3.2406C14.9086 3.19511 14.9385 3.1147 14.9626 3H15.507C15.4931 3.10415 15.4531 3.19709 15.3884 3.27949C15.323 3.36188 15.2354 3.42714 15.125 3.4746C15.0146 3.52272 14.8864 3.54645 14.7398 3.54645C14.5933 3.54645 14.4683 3.52272 14.3578 3.4746C14.2474 3.42648 14.1599 3.36188 14.0945 3.27949C14.0291 3.19709 13.9885 3.10415 13.9727 3H14.5203Z" fill="#FC225F"/>
<path fill-rule="evenodd" clip-rule="evenodd" d="M7.0127 3.71875H8.63275C8.7622 3.71875 8.87833 3.74907 8.98176 3.80972C9.08519 3.87036 9.16579 3.94682 9.2229 4.03779C9.28001 4.12875 9.30856 4.21642 9.30856 4.30014C9.30856 4.42406 9.2597 4.53414 9.16261 4.63038C9.24066 4.68114 9.30158 4.74112 9.34537 4.81099C9.38915 4.88086 9.41136 4.95469 9.41136 5.03313C9.41136 5.13926 9.38217 5.23747 9.32379 5.32778C9.26541 5.41743 9.18419 5.48862 9.08075 5.54069C8.97732 5.59276 8.86183 5.61847 8.73491 5.61847H7.0127V3.71875ZM8.62323 5.15969C8.81423 5.15969 8.80979 4.87493 8.62323 4.87493H7.61553V5.15969H8.62323ZM8.52804 4.45966C8.72984 4.45966 8.72857 4.17489 8.51726 4.17489H7.61617V4.45966H8.52868H8.52804Z" fill="#FC225F"/>
</svg>
