<svg width="32" height="32" viewBox="0 0 32 32" fill="none" xmlns="http://www.w3.org/2000/svg">
<rect width="32" height="32" rx="5" fill="#FFF212"/>
<path fill-rule="evenodd" clip-rule="evenodd" d="M2.88086 16.8157H10.0829V20.3007H9.02225V17.847H3.94775V20.3007H2.88086V16.8157ZM13.1259 20.4058C12.6561 20.4058 12.2198 20.3176 11.8179 20.1413C11.416 19.965 11.0986 19.7344 10.8658 19.4518C10.633 19.168 10.5161 18.871 10.5161 18.5594C10.5161 18.2479 10.633 17.9424 10.8658 17.6574C11.0986 17.3712 11.416 17.1405 11.8179 16.9642C12.2198 16.7879 12.6551 16.6998 13.1259 16.6998C13.4234 16.6998 13.6959 16.7457 13.9454 16.8362C14.1949 16.9268 14.4131 17.0512 14.602 17.2094L14.6626 16.8193H15.6689V20.3043H14.6626L14.6083 19.8998C14.4193 20.058 14.1991 20.1824 13.9485 20.2729C13.6969 20.3635 13.4234 20.4094 13.1259 20.4094V20.4058ZM11.6498 18.5522C11.6498 18.8734 11.7907 19.1233 12.0715 19.3045C12.3524 19.4856 12.7042 19.5762 13.1259 19.5762C13.5476 19.5762 13.8994 19.4856 14.1803 19.3045C14.4611 19.1233 14.602 18.8722 14.602 18.5522C14.602 18.3529 14.5352 18.1742 14.4005 18.0184C14.2659 17.8627 14.0863 17.7419 13.8608 17.6562C13.6364 17.5704 13.3911 17.527 13.1259 17.527C12.8607 17.527 12.6154 17.5704 12.391 17.6562C12.1665 17.7419 11.9859 17.8627 11.8513 18.0184C11.7166 18.1742 11.6498 18.3517 11.6498 18.5522ZM18.9165 16.7119C18.9416 16.7119 20.1891 16.7119 20.2141 16.7119C20.6547 16.7203 21.0649 16.8085 21.4428 16.9763C21.9752 17.2118 22.6642 17.8373 22.6642 18.5582C22.6642 19.2791 21.9815 19.9167 21.4428 20.1546C21.0607 20.3236 20.6463 20.4118 20.1995 20.419C20.1786 20.419 18.9374 20.419 18.9165 20.419C18.3142 20.419 17.8194 20.2657 17.4342 19.959V21.1206H16.3673V16.8145H17.3736L17.4279 17.1768C17.8089 16.8652 18.3058 16.7095 18.9165 16.7095V16.7119ZM17.4404 18.5655C17.4404 18.7744 17.5072 18.9567 17.6398 19.1125C17.7724 19.2682 17.9509 19.3866 18.1764 19.4675C18.4008 19.5484 18.6482 19.5895 18.9176 19.5895C18.9364 19.5895 20.1765 19.5895 20.1953 19.5895C20.4427 19.5846 20.6703 19.5436 20.8791 19.4687C21.1046 19.3878 21.2831 19.2695 21.4157 19.1137C21.5483 18.9579 21.614 18.7756 21.614 18.5667C21.614 18.3578 21.5472 18.1766 21.4157 18.0233C21.2831 17.8699 21.1046 17.7516 20.8791 17.6682C20.6724 17.591 20.448 17.5499 20.2047 17.5439C20.1828 17.5439 18.9395 17.5439 18.9176 17.5439C18.6482 17.5439 18.4008 17.5849 18.1764 17.6658C17.9519 17.7467 17.7724 17.8663 17.6398 18.0209C17.5072 18.1766 17.4404 18.359 17.4404 18.5679V18.5655ZM23.3918 16.8157H24.4587V17.8687L29.1209 16.6406V17.6308L25.3742 18.5799L29.1167 19.4349V20.4251L24.4587 19.2767V20.3079H23.3918V16.8157Z" fill="black"/>
<path fill-rule="evenodd" clip-rule="evenodd" d="M5.74147 14.6259C4.83894 14.5292 3.799 14.403 3.18691 13.7903C2.97871 13.5817 2.88086 13.3588 2.88086 13.1329C2.88086 12.907 2.97559 12.6749 3.18691 12.4693C3.78131 11.8913 4.83478 11.7244 5.74147 11.6277V11.1992H6.78141V11.6277C7.7058 11.7264 8.70306 11.8007 9.34847 12.4724C9.55354 12.6851 9.65348 12.907 9.65348 13.1329C9.65348 13.3588 9.55042 13.5776 9.34847 13.7903C8.74158 14.4274 7.75369 14.5027 6.78141 14.6259V15.6792H5.74147V14.6259ZM3.99783 13.1146C3.99783 13.3252 4.11234 13.4952 4.34136 13.6234C4.57037 13.7517 5.39275 13.8371 5.74147 13.8789V12.3737C5.39275 12.4195 4.57037 12.506 4.34136 12.6322C4.11234 12.7584 3.99783 12.9192 3.99783 13.1146ZM6.78141 13.8789C7.12598 13.8331 7.96917 13.7476 8.19611 13.6234C8.42304 13.4993 8.53651 13.3334 8.53651 13.1268C8.53651 12.9202 8.42304 12.7635 8.19611 12.6352C7.96917 12.507 7.12598 12.4195 6.78141 12.3737V13.8789ZM10.1438 11.6959H11.2014V12.2994C11.2014 12.6169 11.3461 12.8591 11.6365 13.026C11.9259 13.1929 12.2809 13.2764 12.7004 13.2764C12.7212 13.2764 14.7616 13.2764 14.7814 13.2764C15.1655 13.2693 15.4882 13.1909 15.7484 13.0413C16.0222 12.8846 16.2127 12.6393 16.2127 12.3004V11.6969H17.2703V13.8687C17.2703 14.2595 17.1465 14.5903 16.8997 14.863C16.653 15.1347 16.3345 15.3393 15.9452 15.4747C15.5767 15.6029 15.1925 15.6711 14.7907 15.6782C14.7668 15.6782 12.7244 15.6782 12.7004 15.6782C12.2965 15.6782 11.8978 15.6151 11.5043 15.4889C11.1109 15.3627 10.785 15.1724 10.5289 14.92C10.2718 14.6676 10.1438 14.3643 10.1438 14.0122H11.2014C11.2014 14.2229 11.2795 14.3928 11.4367 14.5211C11.5928 14.6493 11.7864 14.7409 12.0155 14.7938C12.2445 14.8477 12.4725 14.8742 12.7004 14.8742C12.7192 14.8742 14.7574 14.8742 14.7761 14.8742C15.1072 14.8681 15.4163 14.805 15.7037 14.6849C16.0076 14.5587 16.2117 14.3358 16.2117 14.0132V13.7781C16.0045 13.8697 15.7713 13.943 15.5121 13.9969C15.2727 14.0468 15.0291 14.0733 14.7803 14.0773C14.7605 14.0773 12.7202 14.0773 12.6994 14.0773C12.3278 14.0773 11.9436 14.0132 11.5481 13.885C11.1525 13.7567 10.8194 13.5593 10.5487 13.2937C10.2781 13.0281 10.1427 12.6993 10.1427 12.3085V11.6999L10.1438 11.6959ZM17.7034 13.885H18.3207L18.303 11.6959H28.5504V13.885H29.1209V15.6721H28.0809V14.6493H18.7381L18.7444 15.6721H17.7044V13.885H17.7034ZM27.5157 13.885V12.4693H19.3544V13.885H27.5157Z" fill="black"/>
</svg>
