<svg viewBox="0 0 32 32" fill="none" xmlns="http://www.w3.org/2000/svg">
  <circle cx="16" cy="16" r="16" fill="#332F2C"/>
  <g clip-path="url(#clip0_767_64)">
    <path d="M25.9084 15.8016C25.9084 15.7017 25.8277 15.6189 25.7285 15.6142C22.1684 15.4783 20.0016 15.0206 18.4858 13.493C16.9669 11.9622 16.5143 9.77694 16.3795 6.18119C16.3764 6.08122 16.2943 6 16.1935 6H15.7781C15.679 6 15.5968 6.08122 15.5922 6.18119C15.4573 9.77537 15.0048 11.9622 13.4858 13.493C11.9685 15.0222 9.80328 15.4783 6.24314 15.6142C6.14395 15.6173 6.06335 15.7001 6.06335 15.8016V16.2203C6.06335 16.3202 6.14395 16.403 6.24314 16.4077C9.80328 16.5436 11.97 17.0012 13.4858 18.5289C15.0016 20.0565 15.4542 22.2356 15.5906 25.8172C15.5937 25.9172 15.6759 25.9984 15.7766 25.9984H16.1935C16.2927 25.9984 16.3749 25.9172 16.3795 25.8172C16.5159 22.2356 16.9685 20.0565 18.4843 18.5289C20.0016 16.9997 22.1668 16.5436 25.727 16.4077C25.8262 16.4046 25.9068 16.3218 25.9068 16.2203V15.8016H25.9084Z" fill="white"/>
  </g>
  <defs>
    <clipPath id="clip0_767_64">
      <rect width="20" height="20" fill="white" transform="translate(6 6)"/>
    </clipPath>
  </defs>
</svg>
